<?xml version="1.0" encoding="UTF-8"?>
<svg id="Layer_1" data-name="Layer 1" xmlns="http://www.w3.org/2000/svg" viewBox="0 0 2832.03 2938.22">
  <defs>
    <style>
      .cls-1 {
        opacity: .6;
      }

      .cls-2,
      .cls-3,
      .cls-4,
      .cls-5,
      .cls-6,
      .cls-7,
      .cls-8,
      .cls-9,
      .cls-10 {
        stroke-width: 0px;
      }

      .cls-11 {
        opacity: .2;
      }

      .cls-3 {
        fill: #ff0068;
      }

      .cls-4 {
        fill: rgba(255, 253, 253, 0);
      }

      .cls-5 {
        fill: #371a45;
      }

      .cls-6 {
        fill: #fff;
      }

      .cls-7 {
        fill: #feffff;
      }

      .cls-8 {
        fill: #028bfe;
      }

      .cls-9 {
        fill: #a8a8a8;
      }

      .cls-10 {
        fill: #feda24;
      }
    </style>
  </defs>
  <path class="cls-5"
    d="M2164.2,979.29c-27.53,65.07-88.22,180.36-212.8,264.08-35.72,24-70.75,41.42-102.61,54.21-30.79,12.42-58.5,20.49-80.81,25.79,7.82,1.01,15.6,2.02,23.42,2.98-8.53-.81-17.11-1.61-25.64-2.42.71-.15,1.46-.35,2.22-.56-13.88-1.72-27.81-3.48-41.69-5.25-55.82-10.25-230.62-49.62-372.3-207.75-14.18-15.9-167.27-191.45-167.27-437.36,0-133.6,39.97-257.87,108.67-361.49,50.93-3.13,122.15-3.89,205.93,7.32,75.12,10.05,194.97,26.93,325.56,98.42,136.09,74.5,222.53,174.62,272,244.55-7.92,9.89-59.94,77.12-43.19,169.34,17.79,97.94,98.36,142.73,108.5,148.14Z" />
  <ellipse class="cls-7" cx="2230.67" cy="789.93" rx="168.25" ry="206.1" />
  <g>
    <path class="cls-6" d="M748.91,1255.64c.4,2.27.96,4.34,1.82,6.21-.76-.3-1.56-.56-2.32-.81.15-1.72.3-3.53.5-5.4Z" />
    <path class="cls-6"
      d="M769.65,1268.35c7.37-2.78,16.56-8.58,26.3-15.9-.91,1.67-5.8,11.26-5.45,23.07-6.96-2.42-13.88-4.8-20.85-7.17Z" />
    <path class="cls-6"
      d="M805.03,1349.62c-5-14.74-6.41-30.03-6.97-35.58-.61-6.31-.66-12.21-.4-17.51,3.03,4.14,6.46,6.91,8.88,8.68-3.74,16-4.04,31.55-1.51,44.42Z" />
    <path class="cls-6"
      d="M2562.23,1490.69c-25.64,295.63-138.65,500.75-270.84,686.04-9.29,13.02-22.56,22.76-37.86,27.36-164.7,49.51-320.46-61.53-313.44-119.52l-6.31-5.25c80.71-43.21,148.44-108.77,194.83-190.08,73.99-129.82,135.67-307.08,102.06-484.95-12.82-60.01-41.59-109.28-89.19-145.77l-48.76,11.51c53-22.31,106.65-51.38,161.06-87.22h49.77c18.32,0,36.19,6.11,50.52,17.56,107.51,85.86,179.33,168.43,203.66,246.57,4.39,14.13,5.8,29.02,4.49,43.76Z" />
    <path class="cls-6" d="M765.87,1187.8c-10.75,26.3-15.09,50.12-16.96,67.84-2.73-16.4,5.25-43.26,16.96-67.84Z" />
    <path class="cls-6"
      d="M769.65,1268.35c-5.25,2.02-9.59,2.47-12.57.81-2.88-1.62-4.95-4.09-6.36-7.32,6.31,2.17,12.62,4.29,18.93,6.51Z" />
    <path class="cls-6"
      d="M790.5,1275.52c3.08,1.06,6.16,2.12,9.24,3.18-.86,4.69-1.77,10.75-2.07,17.82-1.31-1.72-2.52-3.68-3.58-5.91-2.47-5.15-3.48-10.3-3.58-15.09Z" />
    <path class="cls-6"
      d="M867.98,1373.84c-17.11,9.99-34.17,11.71-45.02,5.75-8.88-4.9-15.09-15.8-17.87-29.88,4.34,12.97,11.46,25.44,23.17,30.23,10.85,4.49,25.29,2.22,39.72-6.11Z" />
    <path class="cls-6" d="M895.53,1349.47c1.92-2.47,3.84-5.05,5.65-7.77-1.77,2.73-3.68,5.35-5.65,7.77Z" />
    <path class="cls-6"
      d="M2128.61,1889.23c-46.39,81.31-114.12,146.88-194.83,190.08-1.41.76-2.83,1.46-4.24,2.22-40.33,21.05-83.79,36.59-129.37,45.73-42.75,8.63-86.71,13.58-131.69,15.44l-.4.05c-81.16,3.38-165.66-3.33-252.52-17.01-9.54-1.51-19.18,1.67-25.94,8.53-18.47,18.73-36.95,37.05-55.47,54.81h-.05c-58.45,56.08-117.1,106.4-176,146.42-14.79,10.04-31.8,16.45-49.52,18.62-74.25,9.09-140.32,6.51-197.4-8.88l-63.5-24.33c-32.05-16.45-60.27-38.46-84.44-66.17-44.97-51.58-51.69-127.35-14.49-184.84.71-1.06,1.46-2.17,2.17-3.28,10.45-15.55,24.93-27.96,41.79-36.19,22.16-10.9,48-21.75,77.22-30.99,65.11-20.64,112.71-14.69,135.47-25.09,55.32-25.29,146.22-100.19,211.99-215.78-9.34-92.11,12.11-162.98,76.17-204.42.35-3.03.66-6.06,1.01-9.09,3.18-29.48,6.36-59,9.54-88.48-26.15,6.86-60.16,13.07-99.74,13.12-16.3.05-33.51-.96-51.53-3.38-136.88-18.32-221.33-105.24-246.41-133.2-1.11,1.97-2.27,3.89-3.43,5.75-.56.96-1.16,1.87-1.82,2.78-1.82,2.73-3.74,5.3-5.65,7.77-.66.81-1.31,1.62-1.97,2.42-1.36,1.56-2.68,3.08-4.04,4.54-.71.76-1.41,1.46-2.07,2.17-.71.71-1.41,1.41-2.12,2.07l-2.12,1.97c-.71.66-1.41,1.31-2.12,1.87-.76.61-1.46,1.21-2.17,1.77-2.17,1.77-4.34,3.38-6.56,4.8-.71.5-1.46.96-2.17,1.41-.76.5-1.46.96-2.22,1.36-14.44,8.33-28.87,10.6-39.72,6.11-11.71-4.8-18.83-17.26-23.17-30.23,0,0-.05-.05-.05-.1-2.52-12.87-2.22-28.42,1.51-44.42-2.42-1.77-5.86-4.54-8.88-8.68.3-7.07,1.21-13.12,2.07-17.82-3.08-1.06-6.16-2.12-9.24-3.18-.35-11.81,4.54-21.4,5.45-23.07-9.74,7.32-18.93,13.12-26.3,15.9-6.31-2.22-12.62-4.34-18.93-6.51-.86-1.87-1.41-3.94-1.82-6.21,1.87-17.72,6.21-41.54,16.96-67.84.05-.1.1-.2.1-.25,11.56-28.22,26.2-49.16,37.55-63.04-5.3,0-25.24-.76-43.1-16.05-17.21-14.84-21.2-33.62-22.16-38.97-.05-44.01,150.97-19.18,288.61,45.58,80.3,37.75,148.6,65.26,191.8,92.11,17.46-11.81,48.05-29.22,89.89-37.45,48.96-9.64,89.19-1.92,110.49,3.74,140.17,107.51,286.24,159.19,438.37,152.28,76.87-3.48,155.26-21.96,235.31-55.72l48.76-11.51c47.6,36.49,76.37,85.76,89.19,145.77,33.62,177.87-28.06,355.13-102.06,484.95Z" />
    <path class="cls-6" d="M2092.72,1270.02c-80.05,33.77-158.44,52.24-235.31,55.72l235.31-55.72Z" />
    <path class="cls-6"
      d="M1552.4,2620.9c-13.02,13.78-30.23,22.76-48.91,26.04-59.56,10.55-111.8-1.16-156.67-34.93-39.37-29.63-56.38-81.01-43.56-128.61,14.84-55.12,40.23-108.52,77.78-159.9-12.06-19.74-25.49-46.23-35.33-79.09-6.11-20.29-9.59-39.07-11.61-55.32h.05c18.52-17.77,37-36.09,55.47-54.81,6.76-6.86,16.4-10.04,25.94-8.53,86.87,13.68,171.36,20.39,252.52,17.01l.4-.05c75.56,212.65.2,354.93-116.09,478.19Z" />
  </g>
  <g class="cls-11">
    <path class="cls-5"
      d="M2363.16,1216.01c-3.54-1.86-42.23-21.35-78.01-1.29-16.45,9.22-25.23,22.84-29.25,30.32,43.15,92.9,88.96,125.67,123.96,137.87,11.31,3.94,28.76,8.27,77.94,23.64,33.51,10.47,60.83,19.53,78.93,25.64-8.62,103.6-32.34,242.54-87.43,399.32-44.64,127.04-105.81,247.36-186.66,359.06-162.62,42.33-271.06,8.3-322.55-106.01,290.2-208.84,404.56-557.22,216.13-826.06l107.41-75.71c33.18,11.07,66.36,22.14,99.54,33.21Z" />
  </g>
  <path class="cls-7"
    d="M2177.87,594.22c-54.87-83.43-131.84-159.45-225.82-221.08-167.62-109.83-373.56-163.23-584.34-152.33,120.76-126.64,291.64-204.97,480.85-203.13,359.85,3.51,651.52,300.64,648.74,660.5-2.4,310.59-220.91,569.73-512.54,634.53,88.18-47.29,157.23-105.69,206.24-174.54,32.1-45.07,54.76-93.83,67.79-145.01" />
  <path class="cls-7"
    d="M2164.2,583.83c-203.38-280.41-497.6-383.11-859.25-353.89-12.66,17.07-20.8,38.79-15.8,74.08,331.44.7,612.31,92.25,802.27,347.12l72.78-67.3Z" />
  <g class="cls-11">
    <path class="cls-5"
      d="M918.35,1320.75c20.67,31.41,58.95,79.66,121.83,112.28,98.53,51.11,204.79,36.52,237.8,31.58,89.92-13.48,143.34-56.55,225.87-31.55,17.35,5.26,30.79,11.87,39.12,16.4,22.48,6.37,66.55,22.18,107.26,61.83,50.54,49.23,65.82,105.93,70.66,128.71,15.84-49.73,4.29-83.28-.84-95.48-14.89-35.39-44.83-55.01-86.65-82.44-24.26-15.91-45.94-26.7-61.41-33.65.25-6.13,1.76-21.95,13.46-36.17,8.77-10.66,19.01-15.26,23.55-17.25,13.59-5.92,25.97-5.99,37.01-5.47,35.04,1.66,48.53,8.91,84.96,14.3,13.25,1.96,28.41,4.21,48.69,4.06,26.13-.18,38.28-4.18,74.15-9.17,16.34-2.27,30.94-3.6,60.13-6.25,82.46-7.49,123.68-11.23,160.89-1.89,15.75,3.95,50.87,12.77,78.87,37.22,78.36,68.45,44.22,209.89,41.64,219.98,13.51-24.45,60.21-115.9,34.01-229.42-16.02-69.39-52.24-116.52-73.13-139.86-48.86,21.7-110.35,42.88-182.97,54.66-192.59,31.26-350.62-21.87-429.87-55.52-15.12-6.83-30.89-14.63-47.11-23.55-34.59-19.04-64.22-39.38-89.17-58.89-34.63,1.61-69.26,3.22-103.89,4.84,49.52-4.72,78.02,7.61,95.06,20.28,14.8,11,19.98,21.52,43.32,48.07,21.94,24.95,41.87,43.54,55.52,55.52-58,26.04-150.13,57.97-265.83,59.73-55.84.85-104.9-5.52-145.11-13.88-5.47,2.44-30.85,13.04-60.57,2.52-26.53-9.38-39.47-29.57-42.9-35.33-21.45,1.26-42.9,2.52-64.35,3.79Z" />
  </g>
  <path class="cls-7"
    d="M1826.88,1326.35c172.46-94.65,284.9-210.33,337.32-347.06,27.16,16.59,57.63,22.99,90.03,23.47-51.33,130.4-127.91,240.29-254.05,309.96l-173.29,13.63Z" />
  <circle class="cls-9" cx="1400.37" cy="1369.54" r="111.04" transform="translate(-558.25 1391.34) rotate(-45)" />
  <ellipse class="cls-10" cx="366.14" cy="1279.67" rx="273.64" ry="361.85"
    transform="translate(-590.78 354.51) rotate(-30)" />
  <path class="cls-3"
    d="M517.28,1407.31c-22.32,50.42-90.85,31.17-126.97-35.67l-42.8-79.22-42.8-79.22c-36.11-66.84-14.66-134.72,39.75-125.75l87.41,14.4,70.94,11.69c68.18,11.24,107.4,83.82,79.43,147.01l-29.1,65.75-35.86,81Z" />
  <path class="cls-8"
    d="M1312.04,1455.34c-3.65,26.36-7.29,52.72-10.94,79.08,12.08-5.32,27.35-10.74,45.43-14.3,30.18-5.94,56.13-4.33,74.03-1.68,3.08-11.78,6.17-23.55,9.25-35.33-17,1.1-42.03.66-70.66-7.57-19.51-5.61-35.3-13.29-47.11-20.19Z" />
  <path class="cls-8"
    d="M1269.14,1849.04c-7.8,17.42-7.55,31.29-6.73,38.7.75,6.76,1.6,13.57,6.73,16.82,7.14,4.53,18.04-.69,23.55-5.05,11.94-9.43,11.83-25.25,11.78-27.76-11.78-7.57-23.55-15.14-35.33-22.71Z" />
  <g class="cls-11">
    <path class="cls-5"
      d="M742.95,2109.4c5.35,18.31,17.64,50.69,46.69,79.5,43.75,43.38,96.76,50.14,122.03,53.37,68.3,8.71,122.13-14.07,145.48-25.79,114.78-40.22,226.58-144.41,337.75-262.28,17.56,55.56,22.33,108.83,9.68,158.99l-246.48,222.34c-39.49,8.63-222.05,45.33-344.41-36.12-26-17.31-68.34-45.49-80.9-97.86-9.6-40.01,2.73-75.14,10.17-92.14Z" />
  </g>
  <path class="cls-6"
    d="M2428.68,2249.82c-17.92,48.66-49.97,75.76-69.15,92.01-56.93,48.15-118.97,61.07-142.34,65.92-33.87,7.07-53.2,6.06-75.56,4.85-18.32-.96-41.19-2.22-81.82.81-57.94,4.29-100.04,11.96-118.51,21.6-32.35,16.91-51.99,41.24-67.84,62.74-48.96,66.37-71.02,114.88-90.5,157.63-17.72,38.92-34.47,75.71-66.83,115.89-22.86,28.32-107.91,122.9-242.93,149.71-25.24,5.05-49.46,7.17-72.53,7.17-88.18,0-159.5-31.09-206.03-51.33-49.92-21.7-145.82-73.49-227.03-176.1-44.27-55.98-73.19-110.29-91.76-159.75-21.91-58.6-29.33-110.54-30.69-150.77-.86-27.46-2.98-91.76,27.91-163.74,7.52-17.51,25.09-58.55,64.1-97.72,43.1-43.31,88.58-60.62,115.74-70.97,2.98-1.16,2.42-.91,6.92-2.67,64.4-24.98,120.94-46.89,160.51-92.47,9.89-11.36,23.87-30.13,35.18-58.3,11.26,3.99,22.56,8.03,33.82,12.01.05,1.46.1,2.88.15,4.29,1.16,39.57-9.54,65.16-17.82,79.85-32.3,56.98-105.49,84.59-187.86,115.69-2.17.86-4.24,1.67-7.52,2.93-23.67,8.98-59.46,22.66-92.62,55.93-30.13,30.28-44.27,63.24-50.32,77.28-25.09,58.6-23.42,110.69-22.56,135.72,1.16,34.98,7.72,80.35,27.31,131.84,16.35,43.21,41.84,90.8,80.96,140.17,72.38,91.36,157.48,137.34,201.79,156.62,55.02,23.98,138.15,60.11,239.6,39.98,113.36-22.51,185.24-102.56,204.57-126.54,27.21-33.72,40.88-63.8,58.25-101.91,20.8-45.68,44.37-97.47,97.41-169.39,21.7-29.43,47.65-59.71,90.3-81.92,17.46-9.14,51.33-22.01,144-28.87,44.82-3.33,69.96-2.02,90.15-.91,20.69,1.11,33.16,1.77,58.65-3.53,20.69-4.34,69.2-14.44,113.36-51.84,16.05-13.58,38.06-32.15,49.97-64.56,3.23-8.83,12.26-33.41,7.02-63.29-.76-4.49-1.87-9.14-3.38-13.83-4.69-14.79-12.52-28.27-23.32-40.18-.35-.45-.71-.86-1.11-1.26,13.02-18.62,26.1-37.3,39.17-55.98,6.71,6.71,15.14,16.1,23.52,28.27,4.39,6.41,8.73,13.58,12.77,21.55,1.06,2.02,2.07,4.04,3.03,6.16.51,1.06,5.15,11.05,8.48,21.5,1.61,5.1,3.03,10.25,4.14,15.39,7.37,33.46,4.44,68.49-8.73,104.33Z" />
  <g class="cls-11">
    <path class="cls-5"
      d="M2428.68,2249.82c-17.92,48.66-49.97,75.76-69.15,92.01-56.93,48.15-118.97,61.07-142.34,65.92-33.87,7.07-53.2,6.06-75.56,4.85-18.32-.96-41.19-2.22-81.82.81-57.94,4.29-100.04,11.96-118.51,21.6-32.35,16.91-51.99,41.24-67.84,62.74-48.96,66.37-71.02,114.88-90.5,157.63-17.72,38.92-34.47,75.71-66.83,115.89-22.86,28.32-107.91,122.9-242.93,149.71-25.24,5.05-49.46,7.17-72.53,7.17-88.18,0-159.5-31.09-206.03-51.33-49.92-21.7-145.82-73.49-227.03-176.1-44.27-55.98-73.19-110.29-91.76-159.75-13.07-44.37-17.97-83.89-19.03-115.94-.91-27.46-3.03-91.76,27.86-163.79,7.52-17.51,25.14-58.5,64.1-97.67,43.1-43.31,88.63-60.62,115.79-71.02,2.98-1.11,2.37-.86,6.92-2.62,119.37-46.28,160.51-92.52,160.51-92.52,12.77-14.18,30.69-38.31,43.46-76.01,4.64-.25,9.34-.5,14.03-.76,1.16,39.57-9.54,65.16-17.82,79.85-32.3,56.98-105.49,84.59-187.86,115.69-2.17.86-4.24,1.67-7.52,2.93-23.67,8.98-59.46,22.66-92.62,55.93-30.13,30.28-44.27,63.24-50.32,77.28-25.09,58.6-23.42,110.69-22.56,135.72,1.16,34.98,7.72,80.35,27.31,131.84,14.94,51.89,42.7,111.9,92.62,174.94,72.33,91.41,157.48,137.39,201.74,156.67,55.02,23.92,138.15,60.11,239.65,39.98,113.31-22.51,185.24-102.56,204.57-126.54,27.21-33.72,40.88-63.8,58.25-101.91,20.8-45.68,44.37-97.52,97.41-169.39,21.7-29.43,47.65-59.71,90.3-81.97,17.41-9.09,51.33-21.96,143.95-28.87,44.82-3.28,70.01-1.97,90.2-.86,20.69,1.11,33.16,1.77,58.65-3.58,20.69-4.29,69.15-14.38,113.36-51.79,16.05-13.58,38.01-32.2,49.92-64.56,3.79-10.2,14.28-40.38,3.68-77.12-2.22-7.72-5.05-14.74-8.28-21-11.76-23.12-28.21-36.74-34.93-41.84,2.73-4.04,5.45-8.13,8.23-12.16,11.1-16.56,22.26-33.11,33.41-49.67,13.02,7.27,21.96,14.28,28.16,20.69,7.17,7.42,10.6,14.08,12.21,19.68.2.66.35,1.26.56,1.87,7.42,25.39,9.84,30.69,14.64,40.98.05,0,.05.05.1.15.15.35.45,1.01.91,1.92,7.37,33.46,4.44,68.49-8.73,104.33Z" />
  </g>
  <g class="cls-11">
    <path class="cls-5"
      d="M1240.12,1636.21c.47,33.64,39.1,149.86,169.33,148.51,48.7-.51,88.17,10.07,114.58,5.44,382.6,274.81,726.09-120.28,565.86-423.78,20.18-42.28,299.93,241.89-88.88,623.04-172.4-.11-339.71-37.95-502.22-111.36-88.32,34.89-185.74,8.62-236.23-59.73-67.2-58.37-29.8-164.17-22.45-182.12Z" />
  </g>
  <g class="cls-11">
    <path class="cls-5"
      d="M1404.96,2127.12c29.25,57.78,48.51,113.93,54.67,167.94,1.81,15.83-.87,31.85-7.67,46.26l-55.74,118.23c-23.98,50.85-24.46,109.66-1.33,160.9,28.25,25.52,63.99,35.32,108.59,26.5l123.33-117.81c82.97-92.97,79.43-230.72,41.26-386.37l-263.13-15.64Z" />
  </g>
  <g class="cls-11">
    <path class="cls-5"
      d="M1289.33,1369.54c88.23,62.65,162.27,54.47,222.09-24.82,16.35,79.15-23.68,118.73-103.21,130.6-65.61,5.98-106.02-29.44-124.96-100.12" />
  </g>
  <g class="cls-11">
    <path class="cls-5"
      d="M1389.02,1926.43c22.51,6.97,293.12,143.98,596.71,42.93,69.84-23.25,115.51-77.63,152.83-120.33-43.23,317.91-676.92,330.53-733.6,278.08,0,0,9.97-135.51-15.94-200.69Z" />
  </g>
  <g class="cls-11">
    <path class="cls-5" d="M802.04,1323.07c15.5,75.34,53.26,67.65,104.4,10.09" />
  </g>
  <g class="cls-11">
    <polygon class="cls-5" points="1350.74 1475.32 1340.23 1531.05 1425.19 1519.7 1435.86 1482.26 1350.74 1475.32" />
  </g>
  <g class="cls-11">
    <polygon class="cls-5" points="1315.83 1877.67 1292.28 1914.47 1259.47 1902.04 1259.47 1849.04 1315.83 1877.67" />
  </g>
  <g class="cls-11">
    <path class="cls-2"
      d="M1473.14,1531.05c14.85-42.68,48.78-62.42,109.78-50.47l-85.81-41.64-49.21,41.64-10.09,37.01,35.33,13.46Z" />
  </g>
  <g class="cls-11">
    <path class="cls-2" d="M1607.09,1614.76c21.56-30.43,49.56-47.95,93.96-32.64v44l-93.96-11.36Z" />
  </g>
  <g class="cls-11">
    <path class="cls-5"
      d="M1720.25,1617.91c88.01,7.35,135.73-36.29,164.04-104.1l-30.92,112.3c-54.29,12.42-99.49,10.95-133.12-8.2Z" />
  </g>
  <g class="cls-11">
    <path class="cls-5"
      d="M823.71,1130.84c16.36,13.21,37.75,28.16,64.38,41.66,21.91,11.1,42.37,18.69,59.91,23.96-59.45,24.81-118.9,49.63-178.35,74.44-4.47-7.8-18.01-33.75-11.72-66.25,10.18-52.61,62.7-72.69,65.78-73.81Z" />
  </g>
  <path class="cls-6"
    d="M2154.21,1858.71l154.7-55.94c50.51,13.07,70.92,36.65,48.26,75.29-67.42,57.42-156.85,75.48-257.83,72.87l54.87-92.22Z" />
  <g class="cls-11">
    <path class="cls-5"
      d="M2133.71,1895.56c74.46-2.65,143.85-27.26,207.57-76.34,89.72,62.54-105.35,143.28-246.79,134.28l39.21-57.94Z" />
  </g>
  <g class="cls-11">
    <path class="cls-5"
      d="M2147.39,830.31c2.39,4.98,15.39,30.78,45.43,40.38,7.92,2.53,25.99,8.31,41.51.79,31.3-15.16,13.83-67.94,45.14-111.83,21.73-30.47,53.75-45.66,79.08-53.84,61.52,138.31,13.45,241.33-82.15,243.66-42.81,1.04-88.84-25.54-118.06-91.4l-10.94-27.76Z" />
  </g>
  <g class="cls-11">
    <path class="cls-5"
      d="M2166.32,704.96c-16.21,17.58-35.56,29.79-47.32,24.61-14.61-6.44-20.09-40.85-3.79-83.91-9.41,11.7-64.85,82.98-49.97,181.95,12.66,84.22,67.89,133,82.15,144.87,80.15,46.4,132.34,34.63,169.09-9.25-75.46,3.16-143.46-39.54-168.99-104.45-30.33-77.11,14.38-147.08,18.83-153.8Z" />
  </g>
  <g class="cls-11">
    <path class="cls-5"
      d="M1836.97,1312.72c152.06-80.77,269.41-181.56,327.22-316.69l99.43,15.56c-56.84,136.38-156.1,242.91-305.52,314.15l-121.14-13.02Z" />
  </g>
  <g class="cls-11">
    <path class="cls-5"
      d="M2156.64,111.05c40.26,24.91,102.4,72.97,132.07,152.26,10.64,28.43,22.18,59.27,7.57,80.76-21.95,32.27-77.61,6.21-141.33,49.21-23.4,15.8-24.74,25.28-44.16,31.55-37.94,12.23-78.77-9.14-107.26-29.02,58.89,62.67,117.77,125.34,176.66,188.02,98.5-.35,190.38,61.22,212.08,151.99,23.44,98.05-8.97,214.32-122.98,261.39-67.3,118.39-129.48,240.77-300.5,323.31,285.93-100.54,517.84-265.72,537.8-684.54-39.57-234.57-151.52-413.19-349.95-524.93Z" />
  </g>
  <g class="cls-11">
    <path class="cls-2"
      d="M1343.35,227.32c-10.95,9.57-20.14,19.29-20.96,29.71-.39,4.93,3.61,9.13,8.56,9.13,242.18.45,456.61,40.96,616.17,160.74,5.06,3.8,12.36,3.49,16.54-1.26,8.51-9.68,7.32-24.63.25-42.76,84.18,55.88,155.41,120.01,200.29,200.94l-58.77,75.08c-229.32-268.39-506.27-383.03-825.37-361.52l19.37-72.25,43.92,2.18Z" />
  </g>
  <g class="cls-11">
    <path class="cls-5"
      d="M329.23,1087c-52.1,21.8-59.55,78.47,14.82,199.02,30.32,90.95,85.45,147.38,132.64,142.4,9.34-.98,52.03-6.96,36.17-16.82-36.88-22.95-79.91-63.95-109.64-139.73-50.33-68.4-73.97-133.77-74-184.86Z" />
  </g>
  <g class="cls-11">
    <path class="cls-5"
      d="M206.67,962.38c-146.76,80.74-178.31,226.03-84.52,441.55,12.06,24.91,91.28,182.33,251.09,210.46,38.65,6.8,74.14,4.66,104.1-.89-216.74-91.14-353.55-271.72-344.7-450.69,1.96-39.7,12.87-115.17,74.04-200.42Z" />
  </g>
  <g class="cls-1">
    <path class="cls-6"
      d="M344.21,1127.68c12.57,1.58,40.43,5.08,76.34,9.46,81.93,9.99,102.19,11.95,123.03,27.76,12.12,9.2,30.89,27.98,41.58,67.21,2.5-9.14,6.26-27.84.69-50.17-7.82-31.35-28.86-49.17-35.96-54.68l-205.68-33.65v34.07Z" />
  </g>
  <g class="cls-1">
    <path class="cls-6"
      d="M152.83,1252.46c-6.02-346.16,282.09-414.57,506.12,44.32-24.76-139.82-99.1-259.59-267.78-341.2-184.5-67.64-278.54,101.24-238.34,296.88Z" />
  </g>
  <g class="cls-1">
    <path class="cls-6"
      d="M1655.27,397.07c-46.94-21.8-116.47-47.07-203.49-54.91-37.73-3.4-72.17-2.94-102.34-.56-16.02,1.26-30.63,9.55-39.94,22.64-28.76,40.42-63.19,100.59-82.46,179.31-40.16,164.04,12.25,299.46,33.28,346.9-28.67-160.81,21.9-347.23,116.25-449.91,95.09-103.48,250.82-50.17,278.71-43.48Z" />
  </g>
  <g class="cls-1">
    <ellipse class="cls-6" cx="1889" cy="660.8" rx="79.79" ry="104.73"
      transform="translate(-100.93 873.32) rotate(-25.38)" />
  </g>
  <g class="cls-1">
    <ellipse class="cls-6" cx="1872.31" cy="853.8" rx="26.15" ry="35.33"
      transform="translate(196.74 2048.36) rotate(-60)" />
  </g>
  <g class="cls-1">
    <path class="cls-6"
      d="M1296.27,1344.72c46.52-40.17,102.76-65.63,194.19-37.86l-102.42-47.68c-62.25,13.37-86.04,45.13-91.77,85.54Z" />
  </g>
  <circle class="cls-6" cx="439.12" cy="56.9" r="38.21" transform="translate(282.85 471.2) rotate(-76.72)" />
  <circle class="cls-6" cx="775.96" cy="220.82" r="27.02" />
  <circle class="cls-6" cx="2805.01" cy="469.05" r="27.02" />
  <circle class="cls-6" cx="2663.68" cy="1954.19" r="27.02" />
  <circle class="cls-6" cx="639.18" cy="2564.76" r="27.02" />
  <circle class="cls-6" cx="19.11" cy="678.6" r="19.11" transform="translate(-258.23 58.97) rotate(-22.5)" />
  <circle class="cls-6" cx="358.35" cy="615.08" r="14.13" transform="translate(-292.11 904.29) rotate(-83.75)" />
  <circle class="cls-6" cx="794.95" cy="678.6" r="8.31" />
  <circle class="cls-6" cx="953.94" cy="1634.66" r="14.13" transform="translate(-625.58 591.96) rotate(-26.3)" />
  <path class="cls-6" d="M2279.95,2646.23c21.7-10.32,47.38-10.4,69.07,0-21.69,10.4-47.37,10.33-69.07,0h0Z" />
  <g>
    <line class="cls-4" x1="2319.73" y1="2610.33" x2="2311.52" y2="2678.92" />
    <path class="cls-6" d="M2319.73,2610.33c7.67,22.78,4.69,48.28-8.21,68.58-7.75-22.77-4.62-48.26,8.21-68.58h0Z" />
  </g>
  <path class="cls-6" d="M1952.31,2529.6c21.7-10.33,47.38-10.4,69.07,0-21.69,10.4-47.37,10.33-69.07,0h0Z" />
  <g>
    <line class="cls-4" x1="1992.09" y1="2493.7" x2="1983.88" y2="2562.28" />
    <path class="cls-6" d="M1992.09,2493.7c7.67,22.78,4.69,48.28-8.21,68.58-7.75-22.77-4.62-48.26,8.21-68.58h0Z" />
  </g>
  <path class="cls-6" d="M2690.7,1735.53c21.7-10.32,47.38-10.4,69.07,0-21.69,10.4-47.37,10.33-69.07,0h0Z" />
  <g>
    <line class="cls-4" x1="2730.49" y1="1699.63" x2="2722.27" y2="1768.21" />
    <path class="cls-6" d="M2730.49,1699.63c7.67,22.78,4.69,48.28-8.21,68.58-7.75-22.77-4.62-48.26,8.21-68.58h0Z" />
  </g>
  <path class="cls-6" d="M2690.7,585.44c21.7-10.32,47.38-10.4,69.07,0-21.69,10.4-47.37,10.33-69.07,0h0Z" />
  <g>
    <line class="cls-4" x1="2730.49" y1="549.54" x2="2722.27" y2="618.12" />
    <path class="cls-6" d="M2730.49,549.54c7.67,22.78,4.69,48.28-8.21,68.58-7.75-22.77-4.62-48.26,8.21-68.58h0Z" />
  </g>
  <path class="cls-6" d="M481.83,2126.99c21.7-10.33,47.38-10.4,69.07,0-21.69,10.4-47.37,10.33-69.07,0h0Z" />
  <g>
    <line class="cls-4" x1="521.62" y1="2091.09" x2="513.4" y2="2159.68" />
    <path class="cls-6" d="M521.61,2091.09c7.67,22.78,4.69,48.28-8.21,68.58-7.75-22.77-4.62-48.26,8.21-68.58h0Z" />
  </g>
  <path class="cls-6" d="M577.62,791.54c21.7-10.33,47.38-10.4,69.07,0-21.69,10.4-47.37,10.33-69.07,0h0Z" />
  <g>
    <line class="cls-4" x1="617.4" y1="755.64" x2="609.19" y2="824.22" />
    <path class="cls-6" d="M617.4,755.64c7.67,22.78,4.69,48.28-8.21,68.58-7.75-22.77-4.62-48.26,8.21-68.58h0Z" />
  </g>
  <path class="cls-5"
    d="M1789.73,1343.94l-25.64-2.42-.05-.83c-13.32-1.65-26.68-3.34-39.99-5.04l-.96-.15c-85.43-15.68-248.69-64.25-382.27-213.34-17.61-19.74-171.78-199.8-171.78-449.15,0-132.73,38.6-261.11,111.61-371.25l13.64-7.87c69.9-4.29,140.34-1.79,209.36,7.44,48.9,6.53,197.71,26.4,331.76,100.47,83.27,46.02,200.04,135.88,278.05,250.04l-29.17,19.93c-74.51-109.06-186.24-194.99-265.96-239.05-128.23-70.85-272.08-90.06-319.35-96.38-63.85-8.54-128.96-11.14-193.68-7.7-66.05,102.67-100.92,221.54-100.92,344.37,0,236.26,146.13,406.92,162.79,425.6,126.29,140.96,280.71,187.08,361.83,202.04,12.64,1.61,25.32,3.22,37.96,4.79,25.32-6.17,50.61-14.33,75.21-24.25.51-.21,52.98-21.56,99.42-52.52,132.83-88.65,186.03-197.93,205.91-255.18l33.37,11.59c-21.34,61.44-78.25,178.59-219.68,272.98-49.55,33.03-103.53,54.98-105.81,55.9-21.23,8.56-42.95,15.89-64.79,21.86l-.88,8.12Z" />
  <path class="cls-5"
    d="M1984.75,1330.39c-7.25,0-13.94-4.48-16.55-11.52-3.07-8.27.43-17.54,8.21-21.72,85.59-45.9,152.94-102.83,200.19-169.21,30.62-43,52.51-89.8,65.06-139.12l34.24,8.71c-13.63,53.57-37.36,104.34-70.52,150.91-27.39,38.47-60.96,73.9-100.41,106.01,223.87-100.32,372.7-322.08,374.66-576.38,2.72-350.96-280.46-639.28-631.25-642.7-163.37-1.62-316.77,57.2-436.07,166.46,198.15-1.43,391.81,53.3,549.41,156.56,94.53,61.99,174.37,140.19,230.9,226.15l-29.52,19.41c-53.89-81.96-130.23-156.65-220.75-216.01-163.41-107.07-367.18-160.12-573.74-149.46-7.24.39-13.95-3.69-16.97-10.27-3.02-6.57-1.72-14.33,3.27-19.56C1484.97,72.27,1660.22-1.65,1848.74.03c370.23,3.61,669.1,307.9,666.23,678.3-1.18,152.93-55.1,302.26-151.8,420.48-95.37,116.58-228.39,198.67-374.57,231.15-1.28.29-2.57.42-3.84.42Z" />
  <g>
    <path class="cls-5"
      d="M1283.01,324.13c-11.71-11.5-18.95-27.04-20.37-43.76-3.12-37.41,23.42-70.58,59.15-73.95,15.05-1.44,30.22-2.52,45.08-3.24l1.69,35.29c-14.31.68-28.92,1.73-43.43,3.12-16.56,1.56-28.79,17.63-27.28,35.81.71,8.28,4.23,15.94,9.91,21.52l-24.75,25.21Z" />
    <path class="cls-5"
      d="M1842.02,1345.98c-25.91,0-52.25-1.52-78.28-4.51l4.03-35.1c71.71,8.24,143.87,4.46,213.17-10.9l7.65,34.49c-47.93,10.63-97.24,16.02-146.56,16.02Z" />
  </g>
  <path class="cls-5"
    d="M2230.67,1011.17c-101.12,0-183.39-99.25-183.39-221.24s82.27-221.25,183.39-221.25,183.39,99.25,183.39,221.25-82.27,221.24-183.39,221.24ZM2230.67,598.97c-84.42,0-153.1,85.67-153.1,190.96s68.68,190.96,153.1,190.96,153.11-85.66,153.11-190.96-68.68-190.96-153.11-190.96Z" />
  <path class="cls-5"
    d="M2263.63,967.43c-75.69,0-137.27-74.34-137.27-165.72s61.58-165.72,137.27-165.72,137.27,74.34,137.27,165.72-61.58,165.72-137.27,165.72ZM2263.63,666.27c-58.99,0-106.98,60.76-106.98,135.44s47.99,135.44,106.98,135.44,106.98-60.76,106.98-135.44-47.99-135.44-106.98-135.44Z" />
  <path class="cls-5"
    d="M1415.17,1188.1c-63.49-17.07-133.48-4.91-187.7,32.1,0,0-17.09.33-17.09.33-39.89-24.8-107.28-52.87-150.92-73.3-49.91-23.65-102.4-47.45-155.38-62.79-31.97-9.6-124.15-33.81-150.63-15.32.85,32.23,65.12,53.18,90.32,67.84,6.03,3.89,11.78,8.86,16.54,17.23-16.27,7.71-29.67,3.23-44.99-1.28-29.58-9.33-57.66-21.54-78.83-47-12.56-15.16-20.53-43.28-3.93-58.95,35.92-32.47,137.49-3.89,180.3,8.08,79.33,22.69,161.26,65.91,236.94,99.04,25.86,12.05,51.82,24.23,77.16,39.76l-17.09.33c61.46-42.01,141.42-55.03,213.1-35.33,0,0-7.8,29.26-7.8,29.26h0Z" />
  <path class="cls-5"
    d="M859.04,1195.82c4,15.33-4.59,26.02-13.3,36.47-8.11,9.75-16.93,18.89-26.7,27.33-16.01,13.14-34.99,27.31-58.7,25.43-23.81-2.51-29.73-26.05-27.54-44.78,1.91-20.03,8.58-38.81,16.26-56.78,11.3-24.33,22.77-46.25,43.39-65.35,0,0,20.4,22.39,20.4,22.39-13.96,14.87-25.51,36.76-34.28,56.03-6.73,15.15-12.61,30.92-15.02,46.92-.69,4.81-.51,9.53.09,11.65.51,1.52.1.72-.52.47,2.28,1.5,7.18.96,12.37-.65,19.56-6.75,38.79-22.4,54-37.37,9.16-9.56,15.19-17.49,29.57-21.75h0Z" />
  <path class="cls-5"
    d="M954.94,1194.56c-13.09,13.06-27.58,19.58-42.41,25.36-14.7,6.03-29.11,12.61-42.84,20.06-16.05,9.13-55.74,31.71-54.8,50.82,10.21,16.1,53.43,16.33,72.36,16.32,31-.44,62.52-4.55,93.97-9.28,8.43-2.29,16.3,3.78,17.64,12.12,3.53,12.22,8.33,19.92,18.44,25.9,22.53,12.52,46.67,4.06,71.4,15.18-8.74,9.72-19.37,13.89-30.45,15.86-40.11,8.55-83.54-6.42-89.17-51.4,0,0,17.64,12.12,17.64,12.12-32.28,6.86-65.24,11.43-99.09,11.92-30.98-.56-67.31-1.01-92.3-23.83-24.18-24.61-3.78-56.18,18.63-72.35,27.65-21.09,58.92-33.12,90.98-44.1,15.6-5.36,31.97-8.78,50.02-4.7h0Z" />
  <path class="cls-5"
    d="M837.71,1398.17c-8.14,0-15.65-1.77-22.08-5.31-23.54-12.94-33.33-50.41-23.83-91.13l29.49,6.88c-7.13,30.53.6,53.13,8.92,57.7,3.23,1.77,10.02,2.54,19.38-.62,19.5-6.59,37.61-25.11,48.44-49.56l27.69,12.26c-14.2,32.07-39.04,56.73-66.44,65.99-7.45,2.52-14.74,3.77-21.58,3.77Z" />
  <path class="cls-5"
    d="M1564.41,1320.49c-2.51,13.47-10.49,20.85-19.2,29.57-8.03,7.72-16.45,14.99-26.11,20.35l-16.59-25.34c8.21-7.06,17.65-12.21,27.49-16.9,11.26-5.12,20.71-9.72,34.4-7.68h0Z" />
  <path class="cls-5"
    d="M1204.96,1486.53c-19.15,0-37.54-1.77-55.11-5.32-80.01-16.18-165.71-62.02-247.83-132.57l19.74-22.97c78.21,67.19,159.15,110.71,234.09,125.86,47.73,9.65,102.93,4.51,164.05-15.26l9.32,28.81c-44.17,14.29-85.76,21.45-124.27,21.45Z" />
  <path class="cls-5"
    d="M1158.33,1480.5l-10.91-28.25c55.63-21.48,74.02-101.02,56.22-243.18l30.05-3.76c20.06,160.16-3.89,247.61-75.36,275.2Z" />
  <path class="cls-5"
    d="M1400.37,1495.72c-69.58,0-126.18-56.61-126.18-126.18s56.61-126.18,126.18-126.18,126.18,56.61,126.18,126.18-56.61,126.18-126.18,126.18ZM1400.37,1273.64c-52.88,0-95.9,43.02-95.9,95.9s43.02,95.9,95.9,95.9,95.9-43.02,95.9-95.9-43.02-95.9-95.9-95.9Z" />
  <path class="cls-5"
    d="M840.77,2334.41c-33.82-17.36-63.74-40.81-88.94-69.69-49.73-57.04-56.22-140.52-15.79-203.02l.62-.94c.49-.73,1-1.49,1.48-2.25,12.03-17.9,28.53-32.2,47.92-41.67,25.47-12.53,52.16-23.24,79.3-31.82,38.52-12.21,71.64-15.52,95.82-17.94,16.31-1.63,30.4-3.04,37.93-6.48,57.8-26.42,143.65-101.45,205.12-209.49l26.32,14.98c-64.82,113.92-156.62,193.61-218.85,222.06-12.11,5.53-27.73,7.09-47.5,9.07-24.13,2.41-54.16,5.41-89.69,16.68-25.7,8.12-50.97,18.27-75.12,30.14-14.66,7.15-27.06,17.88-35.91,31.05-.41.65-1.05,1.61-1.68,2.55l-.47.7c-33.02,51.03-27.59,119.56,13.31,166.47,22.66,25.97,49.56,47.05,79.94,62.65l-13.83,26.94Z" />
  <path class="cls-5"
    d="M1027.34,2374.49c-43.84,0-84.02-4.87-120.1-14.6l7.89-29.24c54.03,14.57,118.5,17.41,191.62,8.47,15.25-1.87,30.07-7.44,42.84-16.12,67.44-45.81,140.29-109.15,229.25-199.35,10.17-10.32,24.8-15.12,39.1-12.85,146.12,23.02,270.18,23.56,379.25,1.62,43.69-8.78,85.86-23.69,125.34-44.32,80.74-42.2,147.46-106.64,192.93-186.37,53.3-93.51,137.21-279.52,100.33-474.64-12.45-58.25-39.79-103.03-83.52-136.57l18.43-24.03c49,37.57,80.89,89.59,94.78,154.62,38.75,205-48.35,398.49-103.71,495.62-48.35,84.79-119.31,153.33-205.21,198.22-42.02,21.96-86.9,37.83-133.4,47.17-112.66,22.65-240.21,22.19-389.95-1.4-4.69-.74-9.48.83-12.8,4.2-90.4,91.65-164.69,156.19-233.8,203.14-16.74,11.37-36.17,18.67-56.18,21.13-28.95,3.54-56.68,5.31-83.09,5.31Z" />
  <path class="cls-5"
    d="M2062.42,1369.54c23.88-31.67,76.62-7.09,99.99,13.44,13.97,12.06,24.43,27.12,32.59,42.7,71.17,150.01-13.46,393.45-122.71,508.28-23.94,25.08-50.45,49.39-81.29,66.58-44.16,14.54-90.54,15.8-134.37,10.82-129.47-16.33-247.09-73.76-366.57-121.24-.2-.06,7.92.8,7.88.78-36.93,6-74.71,9.25-112.86,6.64-58.09-3.77-119.54-24.61-155.71-73.09-97.8-134.36,38.43-360.52,206.03-313.42,56.6,15.05,103.32,54.95,140.49,97.64l-9.06-5.07c96.08,15.51,193.9,19.9,291.26,14.97l-14.35,16.12c-5.57-34.57,2.39-70.79,18.87-101.38,5.25-10.2,12.81-19.66,26.52-24.12,2.53,14.12.27,24.08-2.74,33.93-8.4,29.33-11.19,59.24-12.44,89.57-.04,0-14.32,16.18-14.39,16.12-99.25,5.02-199.22.56-297.56-15.32l-9.06-5.07c-23.21-26.64-49.21-50.82-78.76-68.35-43.84-26.39-97.06-33.96-143.11-11.31-88.45,42.9-138.07,173.82-77.49,257.49,55.52,70.34,157.78,67.55,239.36,54.77,0,0,7.92.8,7.92.8,135.67,46.36,337.74,147.38,477.67,101.55,0,0-4.17,1.97-4.17,1.97,25.37-15.95,48.51-35.78,69.3-58.02,20.76-22.3,39.1-47.07,55.33-73.21,63.83-102.02,117.55-278.81,66.4-393.58-12.15-25.24-32.26-45.59-59.45-52.92-15.89-3.1-30.7-6.01-43.52-18.08h0Z" />
  <path class="cls-5"
    d="M1966.69,2000.68l-20.24-22.52c2.71-2.43,8.27-7.68,15.1-15.44,51.2-58.23,59.32-142.67,20.2-210.13-30.64-52.83-71.19-86.04-127.61-104.5l9.42-28.78c63.04,20.63,110.27,59.26,144.38,118.1,45.66,78.73,36.15,177.31-23.65,245.32-7.46,8.48-13.69,14.45-17.6,17.96Z" />
  <path class="cls-5"
    d="M1279.29,1929.61c-3.5,0-6.95-.43-10.27-1.28-20.45-5.11-33.96-24.8-31.35-45.76l6.16-49.8,30.05,3.72-6.16,49.82c-.72,5.81,3.03,11.25,8.74,12.68,5.9,1.51,11.96-1.92,13.85-7.62l9.33-28.4,28.77,9.45-9.34,28.42c-5.69,17.23-21.67,28.79-39.77,28.79Z" />
  <rect class="cls-5" x="1407.93" y="1482.79" width="55.85" height="30.28"
    transform="translate(-436.04 2393.21) rotate(-71.77)" />
  <rect class="cls-5" x="1239.66" y="1478.05" width="122.92" height="30.28"
    transform="translate(-340.44 2601.26) rotate(-82.95)" />
  <path class="cls-5"
    d="M1415.05,2132.48l-28.33-10.72c37.79-99.86,13.38-178.13-74.62-239.29l17.29-24.87c99.65,69.26,128.47,161.74,85.66,274.88Z" />
  <path class="cls-5"
    d="M1462.52,2665.83c-46.08,0-87.91-13.95-124.78-41.69-43.8-32.95-63.53-91.09-49.09-144.68,14.8-54.93,39.78-107.62,74.32-156.75-13.41-23.41-24.08-48.24-31.78-73.94-5.63-18.83-9.71-38.28-12.11-57.82l30.06-3.7c2.19,17.86,5.92,35.63,11.07,52.83,7.91,26.41,19.26,51.82,33.75,75.52l-.69,16.83c-35.36,48.42-60.72,100.54-75.36,154.9-11.25,41.77,4.04,87.02,38.05,112.61,41.8,31.45,89.21,41.95,144.93,32.12,15.62-2.75,30-10.4,40.49-21.52,99.61-105.58,190.92-243.13,112.85-462.75l28.54-10.14c84.02,236.37-19.65,387.99-119.36,493.67-14.93,15.83-35.27,26.69-57.26,30.57-14.92,2.63-29.47,3.95-43.61,3.95Z" />
  <path class="cls-5"
    d="M1400.67,2938.22c-90.27,0-162.35-31.38-210.05-52.14-50.8-22.11-148.34-74.78-230.92-179.09-98.48-124.4-122.11-240.76-124.6-316.47-.93-28.13-3.09-94.01,28.69-168.07,7.75-18.05,25.89-60.31,66.23-100.84,44.62-44.83,91.37-62.64,119.31-73.29l6.86-2.63c63.65-24.68,118.61-46,156.56-89.71,13.74-15.83,24.99-34.48,33.44-55.44l3.62-8.98,49.3,17.53.33,6.75c1.69,34.24-4.69,64.39-18.96,89.6-34.08,60.17-107.76,87.98-193.06,120.19l-7.5,2.88c-22.88,8.71-57.45,21.88-89.07,53.65-28.78,28.92-42.37,60.6-48.18,74.14-24.24,56.47-22.58,107.08-21.79,131.39,2.07,62.84,22.16,159.98,106.13,266.05,70.97,89.64,154.44,134.76,197.88,153.67,53.86,23.44,135.25,58.85,233.63,39.32,110.01-21.83,179.89-99.65,198.69-122.97,26.39-32.74,39.85-62.3,56.9-99.74,21.03-46.19,44.85-98.48,98.47-171.19,22.43-30.41,49.32-61.74,93.77-84.92,18.24-9.51,53.42-22.97,147.9-29.98,45.53-3.38,71.01-2.01,91.47-.92,20.52,1.1,31.82,1.71,56.05-3.35,19.96-4.16,66.66-13.89,108.91-49.64,16.04-13.57,35.99-30.45,46.97-60.32,3.45-9.39,13.95-37.95,3.53-70.58-4.43-13.86-11.91-26.52-22.23-37.62l-5.56-5.97,50.73-72.53,8.51,8.5c17.27,17.24,31.18,37.04,41.34,58.85,1.26,2.71,5.65,12.37,8.94,22.68,12.87,40.28,11.28,82.78-4.73,126.31-18.8,51.13-52.15,79.34-72.07,96.2-58.87,49.81-122.77,63.13-146.82,68.14-35.16,7.32-55.08,6.27-78.14,5.03-18.14-.96-40.61-2.16-80.56.8-55.77,4.13-97.52,11.6-114.56,20.49-30.45,15.88-49.21,39.18-64.4,59.78-48.3,65.49-70.14,113.45-89.41,155.76-18.03,39.6-35.03,76.93-68.2,118.08-23.39,29.02-110.45,125.84-248.79,153.3-24.51,4.86-49.58,7.33-74.52,7.33ZM1261.08,1917.01c-8.77,19.46-19.89,36.99-33.11,52.21-41.23,47.49-98.36,69.64-164.5,95.3l-6.94,2.67c-26.44,10.08-70.66,26.92-112.22,68.67-37.61,37.79-54.69,77.56-61.98,94.55-30.01,69.94-27.94,132.66-27.06,159.45,2.39,72.67,25.19,184.51,120.25,304.6,79.84,100.86,174.08,151.75,223.15,173.11,46.17,20.1,115.94,50.46,202,50.46,23.62,0,47.37-2.34,70.59-6.94,131.67-26.14,214.7-118.48,237.01-146.16,31.57-39.16,48.06-75.37,65.51-113.7,19.71-43.29,42.02-92.27,91.57-159.46,16.54-22.41,37.05-47.82,71.31-65.69,25.21-13.15,80.48-19.61,122.4-22.72,41.23-3.06,64.42-1.83,83.04-.83,21.74,1.16,40.44,2.16,73.01-4.63,22.7-4.73,82.96-17.29,137.91-63.78,18.42-15.58,49.21-41.64,66.18-87.76,14.42-39.21,15.92-77.3,4.45-113.2-3.01-9.41-7.2-18.56-8.01-20.3-7.48-16.04-17.21-30.89-29.02-44.27l-27.52,39.35c9.6,11.76,16.75,24.86,21.28,39.04,12.53,39.23.23,72.69-3.81,83.68-12.82,34.88-35.97,54.47-52.87,68.76-46.17,39.06-96.38,49.53-117.82,54-26.83,5.59-40.53,4.85-61.26,3.75-19.89-1.06-44.65-2.39-88.9.89-90.76,6.73-123.4,19.06-140.05,27.75-40.81,21.29-65.86,50.55-86.86,79-52.37,71.02-75.72,122.29-96.32,167.52-17.66,38.78-31.59,69.37-59.58,104.09-19.88,24.67-93.8,106.96-210.48,130.11-104.58,20.75-189.45-16.17-245.62-40.61-45.17-19.67-131.95-66.56-205.65-159.65-87.38-110.38-108.31-212.05-110.48-277.9-.84-25.81-2.59-79.44,23.41-140.04,6.26-14.59,20.91-48.76,52.42-80.42,34.69-34.84,71.7-48.94,96.19-58.27l7.56-2.91c81.64-30.82,152.15-57.43,182.63-111.25,11.44-20.21,17.01-44.38,16.59-71.94l-18.38-6.54Z" />
  <path class="cls-5"
    d="M2169.41,2234.01c-80.93,0-154.71-30.74-200.73-69.48-32.8-27.6-49.17-56.75-46.1-82.08l35.07,4.25c-1.22,10.1,8.75,29.72,33.78,50.79,55.31,46.56,156.24,79.97,257.01,49.67,11.32-3.4,21.46-10.76,28.55-20.71,123.51-173.12,241.42-374.99,267.66-677.3,1.11-12.84-.16-25.28-3.8-36.97-21.97-70.65-88.52-150.73-197.81-238.02-11.08-8.85-25.11-13.73-39.49-13.73h-49.76v-35.33h49.76c22.37,0,44.23,7.62,61.55,21.45,116.53,93.07,185.06,176.52,209.5,255.13,5,16.09,6.77,33.08,5.26,50.51-26.98,310.76-147.68,517.57-274.1,694.76-11.62,16.29-28.36,28.38-47.14,34.02-30.02,9.03-60.08,13.01-89.21,13.01Z" />
  <path class="cls-5"
    d="M2291.24,1426.74c17.98-18.68,40.08-28.35,64.3-34.4,47.66-12.2,100.3-16.25,148.06,1.15,24.37,8.52,46.85,22.31,65.15,39.63l-22.02,27.63c-18.16-11.58-36.84-20.9-56.6-27.2-41.02-12.89-84.74-11.8-127.82-6.22-23.29,3.34-47.55,5.36-71.07-.6h0Z" />
  <path class="cls-5"
    d="M2135.83,1964.29c-7.38,0-14.88-.24-22.92-.73-9.9-.63-19.17-3.12-27.58-7.38l9.13-18.01c5.87,2.98,12.68,4.79,19.7,5.24,7.6.46,14.69.69,21.66.69,69.34,0,136.49-21.45,205.28-65.58,9.64-6.18,15.72-15.08,17.13-25.04,1.3-9.2-1.62-18.43-8.23-25.99-15.11-17.24-43.94-20.64-64.27-7.59-48.65,31.18-94.54,47.38-140.3,49.54l-.95-20.17c42.13-1.99,84.77-17.16,130.35-46.36,28.37-18.24,68.91-13.18,90.36,11.28,10.54,12.06,15.17,27.02,13.02,42.12-2.22,15.64-11.77,29.93-26.22,39.2-72.14,46.28-142.86,68.78-216.18,68.78Z" />
  <path class="cls-5"
    d="M1720.82,1633.37l-26.59-14.51c6.65-12.18,7.75-24.14,3.36-36.55-14.12-39.99-82.95-85.78-204.59-136.13l11.58-27.98c133.57,55.28,203.98,104.23,221.56,154.03,7.31,20.69,5.51,41.26-5.33,61.14Z" />
  <path class="cls-5"
    d="M1589.4,1621.06l-27.53-12.61c29.74-64.96,79.56-87.77,144.04-65.96l-9.7,28.69c-49.6-16.76-83.54-.92-106.8,49.88Z" />
  <path class="cls-5"
    d="M1400.92,1476.27l-9.92-1.89c12.55-65.8,42.94-123.35,90.34-171.07l7.16,7.11c-45.95,46.26-75.42,102.06-87.58,165.84Z" />
  <path class="cls-5"
    d="M1356.29,1465.5c-3.92-21.54-9.31-77.3,25.37-129.74,20.92-31.63,48.29-49.7,67.57-59.28l4.49,9.04c-18.17,9.03-43.96,26.05-63.64,55.81-32.66,49.38-27.57,102.03-23.86,122.37l-9.93,1.81Z" />
  <path class="cls-5"
    d="M1315.28,1437.12c-3.82-20.65-8.98-74.03,25.58-123.45,21.27-30.41,48.85-46.68,68.25-54.98l3.97,9.28c-18.19,7.78-44.04,23.03-63.95,51.49-32.37,46.29-27.52,96.42-23.93,115.83l-9.93,1.84Z" />
  <path class="cls-5"
    d="M1498,1391.62c-27.98-61.02-80.69-94.63-156.65-99.91l.7-10.07c79.93,5.55,135.48,41.14,165.12,105.77l-9.17,4.21Z" />
  <path class="cls-5"
    d="M1487.52,1421.12c-34.45-57.98-98.85-104.85-164.06-119.42l2.2-9.85c67.79,15.15,134.73,63.86,170.53,124.12l-8.68,5.16Z" />
  <path class="cls-5"
    d="M1477.29,1435.47c-38.05-44.62-119.07-98.19-169.99-112.38l2.71-9.72c53.41,14.89,135.16,68.89,174.96,115.56l-7.68,6.55Z" />
  <path class="cls-5"
    d="M1457.81,1457.87c-44.61-49.79-98.88-85.24-165.89-108.38l3.3-9.54c68.68,23.71,124.32,60.08,170.11,111.18l-7.52,6.74Z" />
  <path class="cls-5"
    d="M1410.26,1477.35c-19.26-43.87-73.97-69.01-114.98-77.21l1.98-9.9c43.39,8.67,101.43,35.63,122.25,83.05l-9.24,4.06Z" />
  <path class="cls-5"
    d="M437.76,1634.14c-116.21,0-243.08-78.92-319.53-211.34-103.24-178.82-76.02-388.51,60.68-467.43,66.8-38.57,149.12-40.58,231.78-5.66,81.45,34.41,153.67,100.76,203.36,186.83,103.24,178.82,76.02,388.51-60.68,467.43-35.47,20.48-74.89,30.17-115.61,30.17ZM295.07,950.19c-37.18,0-72.34,9.03-103.54,27.04-124.65,71.97-147.72,266.19-51.44,432.96,71.8,124.36,190.03,198.88,297.2,198.88,36.54,0,71.78-8.65,103.47-26.95,124.65-71.97,147.72-266.19,51.44-432.96h0c-46.96-81.34-114.91-143.92-191.33-176.2-35.96-15.19-71.73-22.77-105.8-22.77Z" />
  <path class="cls-5"
    d="M503.72,1613.23c-118.72,0-243-81.27-318.27-211.57-103.2-178.81-75.97-388.51,60.69-467.46,3.66-2.13,7-3.94,10.19-5.5l11.13,22.65c-2.65,1.3-5.48,2.83-8.66,4.68-124.65,72.01-147.74,266.25-51.49,433.01,69.85,120.91,188.51,198.86,297.54,198.87,10.38,0,20.65-.71,30.81-2.15l3.55,24.99c-11.73,1.66-23.59,2.48-35.48,2.48Z" />
  <path class="cls-5"
    d="M475.28,1448.45c-35.22,0-72.66-27.49-96.06-70.81l-85.6-158.43c-23.99-44.4-25.99-92.03-5.09-121.34,13.15-18.44,34.29-26.77,58-22.87l158.35,26.1c36.38,6,67.3,28.04,84.82,60.48,17.53,32.44,19.02,70.38,4.09,104.09l-64.96,146.75c-9.73,21.98-28.28,35.09-50.91,35.98-.87.03-1.76.05-2.63.05ZM334.92,1099.26c-10.89,0-19.57,4.44-25.85,13.26-12.17,17.07-15.25,53.98,6.75,94.69l85.6,158.43c21.99,40.71,54.64,58.37,75.5,57.54,13.2-.52,22.89-7.58,28.83-20.97l64.96-146.75c11.74-26.52,10.57-56.36-3.22-81.88-13.79-25.52-38.11-42.86-66.72-47.57l-158.35-26.1c-2.6-.43-5.1-.64-7.49-.64Z" />
  <path class="cls-5"
    d="M517.42,1416.47c-33.26-3.65-67.28-30.62-88.77-70.39l-85.61-158.44c-19.55-36.23-24.65-75.5-13.64-105.04l23.65,8.81c-8.38,22.49-3.7,54.76,12.2,84.24l85.6,158.43c17.34,32.1,44.55,54.59,69.32,57.3l-2.75,25.09Z" />
</svg>