<?xml version="1.0" encoding="UTF-8"?>
<svg xmlns="http://www.w3.org/2000/svg" viewBox="0 0 346.54 369.32">
  <defs>
    <style>
      .cls-1 {
        fill: #b8e3e2;
      }

      .cls-1, .cls-2, .cls-3, .cls-4, .cls-5, .cls-6, .cls-7, .cls-8, .cls-9, .cls-10, .cls-11, .cls-12, .cls-13, .cls-14, .cls-15, .cls-16, .cls-17, .cls-18 {
        stroke-width: 0px;
      }

      .cls-19, .cls-20, .cls-21 {
        fill: none;
        stroke: #000;
        stroke-linecap: round;
        stroke-miterlimit: 10;
        stroke-width: .82px;
      }

      .cls-2 {
        fill: #ff6224;
      }

      .cls-3 {
        fill: #ffc947;
      }

      .cls-22 {
        opacity: .53;
      }

      .cls-22, .cls-6, .cls-20, .cls-23, .cls-17 {
        mix-blend-mode: overlay;
      }

      .cls-24 {
        isolation: isolate;
      }

      .cls-5 {
        fill: #e03c03;
      }

      .cls-6, .cls-20 {
        opacity: .15;
      }

      .cls-7 {
        fill: #382424;
      }

      .cls-8 {
        fill: #383873;
      }

      .cls-9 {
        fill: #2e4780;
      }

      .cls-10 {
        fill: #ffad94;
      }

      .cls-21 {
        stroke-dasharray: 0 0 4.15 4.15;
      }

      .cls-11 {
        fill: #fff;
      }

      .cls-12 {
        fill: #0c2059;
      }

      .cls-13 {
        fill: #20c3c5;
      }

      .cls-14 {
        fill: #169799;
      }

      .cls-15 {
        fill: #86bfbc;
      }

      .cls-23, .cls-17 {
        opacity: .25;
      }

      .cls-16 {
        fill: #9fccc9;
      }

      .cls-18 {
        fill: #eaf9f8;
      }
    </style>
  </defs>
  <g class="cls-24">
    <g id="OBJECTS">
      <g>
        <path class="cls-18" d="M337.53,171.97c-23.34,34.95-73.16,143.04-60.9,183.15l-178.71.04s-25.82-19.23-50.91-52.65c-4.56-6.07-9.09-12.62-13.44-19.6-4.62-7.4-9.02-15.29-13.02-23.64C8.91,235.05.61,207,.28,175.98-.89,68.63,92.02-31.14,218.42,9.12c126.4,40.26,142.44,127.9,119.1,162.84Z"/>
        <g>
          <path class="cls-5" d="M225.71,356.38c-.36,0-.71-.16-.96-.46l-95.3-118.49c-.42-.53-.34-1.3.19-1.73.53-.42,1.3-.34,1.73.19l95.3,118.49c.43.53.34,1.3-.19,1.73-.23.18-.5.27-.77.27Z"/>
          <path class="cls-2" d="M77.88,356.38c-.27,0-.54-.09-.77-.27-.53-.43-.61-1.2-.19-1.73l95.3-118.49c.43-.53,1.2-.61,1.73-.19.53.43.61,1.2.19,1.73l-95.3,118.49c-.24.3-.6.46-.96.46Z"/>
          <path class="cls-2" d="M173.18,356.38c-.36,0-.71-.16-.96-.46l-95.3-118.49c-.42-.53-.34-1.3.19-1.73.53-.42,1.3-.34,1.73.19l95.3,118.49c.43.53.34,1.3-.19,1.73-.23.18-.5.27-.77.27Z"/>
          <path class="cls-5" d="M94.77,239.81h-44.28c-1.74,0-3.15-1.41-3.15-3.15h0c0-1.74,1.41-3.15,3.15-3.15h44.28c1.74,0,3.15,1.41,3.15,3.15h0c0,1.74-1.41,3.15-3.15,3.15Z"/>
          <path class="cls-2" d="M222.16,239.81h-126.55c-1.74,0-3.15-1.41-3.15-3.15h0c0-1.74,1.41-3.15,3.15-3.15h126.55v6.29Z"/>
          <path class="cls-5" d="M128.97,295.91c0,1.9-1.54,3.44-3.44,3.44s-3.44-1.54-3.44-3.44,1.54-3.44,3.44-3.44,3.44,1.54,3.44,3.44Z"/>
          <path class="cls-3" d="M181.5,295.91c0,1.9-1.54,3.44-3.44,3.44s-3.44-1.54-3.44-3.44,1.54-3.44,3.44-3.44,3.44,1.54,3.44,3.44Z"/>
        </g>
        <g>
          <rect class="cls-13" x="87.18" y="98.45" width="52.58" height="41.15" rx="3.99" ry="3.99"/>
          <path class="cls-11" d="M124.88,116.62h-1.65c-.25-.9-.63-1.76-1.11-2.54l1.27-1.27c.49-.49.49-1.27,0-1.76l-1.79-1.79c-.49-.49-1.27-.49-1.76,0l-1.35,1.35c-.75-.42-1.55-.75-2.4-.97v-2.03c0-.69-.56-1.24-1.24-1.24h-2.54c-.69,0-1.24.56-1.24,1.24v2.05c-.82.21-1.6.52-2.33.92l-1.49-1.49c-.49-.49-1.27-.49-1.76,0l-1.79,1.79c-.49.49-.49,1.27,0,1.76l1.38,1.38c-.46.73-.82,1.53-1.08,2.37h-1.94c-.69,0-1.24.56-1.24,1.24v2.54c0,.69.56,1.24,1.24,1.24h1.7c.19.94.51,1.83.95,2.66l-1.16,1.16c-.49.49-.49,1.27,0,1.76l1.79,1.79c.49.49,1.27.49,1.76,0l1.01-1.01c.84.55,1.76.97,2.74,1.24v1.41c0,.69.56,1.24,1.24,1.24h2.54c.69,0,1.24-.56,1.24-1.24v-1.31c1.02-.24,1.97-.63,2.84-1.15l.97.97c.49.49,1.27.49,1.76,0l1.79-1.79c.49-.49.49-1.27,0-1.76l-.99-.99c.49-.85.86-1.77,1.09-2.76h1.54c.69,0,1.24-.56,1.24-1.24v-2.54c0-.69-.56-1.24-1.24-1.24ZM114.83,125.64c-4.5.85-8.37-3.02-7.52-7.52.48-2.52,2.5-4.54,5.02-5.02,4.5-.85,8.37,3.02,7.52,7.52-.48,2.52-2.5,4.54-5.02,5.02Z"/>
        </g>
        <g>
          <rect class="cls-2" x="154.34" y="75.72" width="52.58" height="41.15" rx="3.99" ry="3.99"/>
          <g>
            <g>
              <path class="cls-11" d="M171.75,103.21c-.31,0-.63-.13-.87-.38l-5.54-5.93c-.48-.51-.48-1.35,0-1.86l5.64-6.03c.48-.51,1.26-.51,1.74,0,.48.51.48,1.34,0,1.86l-4.77,5.1,4.67,5c.48.51.48,1.34,0,1.86-.24.26-.55.38-.87.38Z"/>
              <path class="cls-11" d="M189.51,103.21c-.31,0-.63-.13-.87-.38-.48-.51-.48-1.35,0-1.86l4.68-5-4.77-5.1c-.48-.51-.48-1.34,0-1.86.48-.51,1.26-.51,1.74,0l5.64,6.03c.23.25.36.58.36.93s-.13.68-.36.93l-5.54,5.93c-.24.26-.55.38-.87.38Z"/>
            </g>
            <path class="cls-11" d="M177.88,104.84c-.15,0-.31-.03-.46-.1-.63-.27-.93-1.04-.67-1.71l5.5-14.46c.26-.67.97-1,1.6-.72.63.27.93,1.04.67,1.71l-5.5,14.46c-.19.51-.65.82-1.14.82Z"/>
          </g>
        </g>
        <g>
          <g>
            <path class="cls-11" d="M134.18,119.72h107.36c.92,0,1.66.74,1.66,1.66v3.4h-110.68v-3.4c0-.92.74-1.66,1.66-1.66Z"/>
            <path class="cls-8" d="M132.52,124.77h110.68v55.92c0,1.71-1.38,3.09-3.09,3.09h-104.5c-1.71,0-3.09-1.38-3.09-3.09v-55.92h0Z"/>
            <g>
              <path class="cls-2" d="M237.88,122.24c0,.43-.35.78-.78.78s-.78-.35-.78-.78.35-.78.78-.78.78.35.78.78Z"/>
              <path class="cls-2" d="M232.54,122.24c0,.43-.35.78-.78.78s-.78-.35-.78-.78.35-.78.78-.78.78.35.78.78Z"/>
              <path class="cls-2" d="M227.19,122.24c0,.43-.35.78-.78.78s-.78-.35-.78-.78.35-.78.78-.78.78.35.78.78Z"/>
            </g>
            <path class="cls-13" d="M199.72,132.75h-61.46c-.59,0-1.07-.48-1.07-1.07h0c0-.59.48-1.07,1.07-1.07h61.46c.59,0,1.07.48,1.07,1.07h0c0,.59-.48,1.07-1.07,1.07Z"/>
            <path class="cls-13" d="M199.72,139.55h-61.46c-.59,0-1.07-.48-1.07-1.07h0c0-.59.48-1.07,1.07-1.07h61.46c.59,0,1.07.48,1.07,1.07h0c0,.59-.48,1.07-1.07,1.07Z"/>
            <path class="cls-13" d="M170.4,146.36h-32.14c-.59,0-1.07-.48-1.07-1.07h0c0-.59.48-1.07,1.07-1.07h32.14c.59,0,1.07.48,1.07,1.07h0c0,.59-.48,1.07-1.07,1.07Z"/>
            <path class="cls-2" d="M199.72,159.98h-61.46c-.59,0-1.07-.48-1.07-1.07h0c0-.59.48-1.07,1.07-1.07h61.46c.59,0,1.07.48,1.07,1.07h0c0,.59-.48,1.07-1.07,1.07Z"/>
            <path class="cls-2" d="M170.4,166.78h-32.14c-.59,0-1.07-.48-1.07-1.07h0c0-.59.48-1.07,1.07-1.07h32.14c.59,0,1.07.48,1.07,1.07h0c0,.59-.48,1.07-1.07,1.07Z"/>
            <path class="cls-13" d="M170.4,173.59h-32.14c-.59,0-1.07-.48-1.07-1.07h0c0-.59.48-1.07,1.07-1.07h32.14c.59,0,1.07.48,1.07,1.07h0c0,.59-.48,1.07-1.07,1.07Z"/>
            <path class="cls-11" d="M199.72,146.36h-23.1c-.59,0-1.07-.48-1.07-1.07h0c0-.59.48-1.07,1.07-1.07h23.1c.59,0,1.07.48,1.07,1.07h0c0,.59-.48,1.07-1.07,1.07Z"/>
            <path class="cls-2" d="M230.22,131.08l-16.33,16.33c-.42.42-1.09.42-1.51,0h0c-.42-.42-.42-1.1,0-1.51l16.33-16.33c.42-.42,1.1-.42,1.51,0h0c.42.42.42,1.1,0,1.51Z"/>
            <circle class="cls-2" cx="221.3" cy="161.97" r="9.63" transform="translate(12.65 339.93) rotate(-76.66)"/>
            <path class="cls-13" d="M220.04,168.68c0,3.01-2.44,5.45-5.45,5.45s-5.45-2.44-5.45-5.45,2.44-5.45,5.45-5.45,5.45,2.44,5.45,5.45Z"/>
          </g>
          <polyline class="cls-8" points="132.52 177.81 132.52 197.28 150.41 179.38"/>
        </g>
        <g>
          <polygon class="cls-15" points="113.47 202.54 152.73 202.54 166.93 229.87 127.67 229.87 113.47 202.54"/>
          <path class="cls-11" d="M128.46,227.85l-11.76-22.63c-.25-.47.1-1.04.63-1.04h33.97c.27,0,.51.15.63.38l11.76,22.63c.25.47-.1,1.04-.63,1.04h-33.97c-.27,0-.51-.15-.63-.38Z"/>
          <rect class="cls-1" x="127.67" y="229.87" width="31.8" height="3.65"/>
          <path class="cls-16" d="M186.79,229.87h-31.38c-1.01,0-1.82.82-1.82,1.82h0c0,1.01.82,1.82,1.82,1.82h31.38c1.01,0,1.82-.82,1.82-1.82h0c0-1.01-.82-1.82-1.82-1.82Z"/>
          <path class="cls-1" d="M127.67,229.87l-14.2-27.33-.71.53c-.46.34-.6.97-.33,1.48l15.24,28.96v-3.65Z"/>
          <rect class="cls-16" x="138.46" y="231.57" width="3.5" height=".61"/>
          <rect class="cls-16" x="142.86" y="231.57" width="3.5" height=".61"/>
          <rect class="cls-16" x="147.27" y="231.57" width="3.5" height=".61"/>
        </g>
        <g>
          <path class="cls-8" d="M199.25,283.35s-32.57,25.36-37.73,31.8c-1.95,2.44-5.34,6.71-8.86,11.09-5.78,7.19-11.91,14.69-12.64,14.87-1.16.29-10.93-7.15-11.23-8.75-.18-1,8.72-16.27,16.42-28.55,4.69-7.46,8.93-13.83,10.42-15.21,3.94-3.65,28.16-16.48,28.16-16.48l15.46,11.23Z"/>
          <path class="cls-20" d="M137.1,335.7s30.42-43.31,45.7-50.6"/>
          <path class="cls-7" d="M233.19,172.15c-.34.79-.74,1.6-1.18,2.44-2.38,4.55-.62,9.11-3.34,10.27-.16.07-.34.13-.55.17-3.5.78-11.57-3.89-11.93-6.22-.35-2.33,2.49-6.33,0-6.81-2.49-.48-3.83,3.7-3.83,3.7-2.05.21-2.77-3.22-6.13-3.22-.47,0-.94.07-1.39.18-1.58.39-2.96,1.37-3.85,2.12-.65.55-1.03.98-1.03.98,0,0-2.99-1.89-2.85-5.61.24-5.9,2.41-10.21,7.66-11.08.58-6.56,5.98-10.07,13.2-10.29,6.33-.2,7.28,5.49,7.42,6.91-.06-1.06-.35-4.53-1.86-6.91,3.17-.14,5.96,2.12,5.23,9.49.73-2.19,3.28-3.58,5.25-1.97-1.82,0-3.57,3.06-3.57,3.06,0,0,2.14,1.37,3.59,3.9,1.21,2.09.75,5.17-.86,8.9Z"/>
          <path class="cls-10" d="M228.68,184.87l-.08,1.08-.28,3.83s-5.83,4.98-9.13,0c-.02-.03-.04-.07-.07-.1-1.02-1.52-1.95-2.05-2.79-2.15-1.83-.22-3.3,1.56-4.82-.37-4.35-5.52-6.09-11.93-6.65-14.49.45-.11.92-.18,1.39-.18,3.36,0,4.08,3.43,6.13,3.22,0,0,1.34-4.18,3.83-3.7,2.49.48-.35,4.48,0,6.81.16,1.04,1.85,2.55,3.99,3.82,2.5,1.5,5.61,2.68,7.58,2.46.12-.02.24-.03.35-.06.2-.04.38-.11.55-.17Z"/>
          <path class="cls-17" d="M229.58,191.99c-2.63,1.79-7.44,2.09-7.44,2.09l-3.94-.58s-1.65-2.39-.88-3.72c.15-.26.52-.62,1.04-1.05,1.06-.87,2.76-1.98,4.52-2.9,1.82-.94,3.69-1.69,5.04-1.77,3.31-.19,4.28,6.13,1.65,7.93Z"/>
          <path class="cls-13" d="M228.81,255.84c-5.86,1.13-18.26-2.32-24.19-4.99-1.75-.79-2.95-1.51-3.23-2.01-1.14-2.01,0-3.54,2.83-9.91.32-.72.65-1.5,1.01-2.34,1.92-4.51,1.92-14.13,1.92-22.42-.02-7.1-.06-13.22,1.07-14.31,2.45-2.36,14.66-10.08,14.66-10.08l2.43,12.67s1.38,6.43,2.82,14.83c2.67,15.46,5.6,37.61.68,38.56Z"/>
          <path class="cls-8" d="M232.89,261.47c0,.58-5.84,14.19-10.73,16.14-4.89,1.95-34.39-.2-34.39-.2l-14.59,9.54,3.05,28.73,2.13,20.02.07.65c-4.46,2.91-15.7,3.7-16.91,1.19,0,0,0-.02,0-.02-1.17-2.53-19.06-56.4-12.06-65.74,7-9.33,51.92-22.95,51.92-22.95,1.17.74,2.53,1.42,4.01,2.01,4.99,2.05,11.34,3.33,16.16,4.08,1.86.29,3.49.5,4.73.65,1.57.19,2.52.26,2.52.26,0,0,4.08,5.05,4.08,5.64Z"/>
          <path class="cls-12" d="M180.28,355.12h-37.93c-.19-.67.07-1.35.64-2.04,1.54-1.85,5.39-3.71,9.11-5.31,3.53-1.52,6.92-2.83,8.05-3.73,2.68-2.12,1.44-6.24,1.37-6.5.41.84,1.96,1.32,4,1.46,4.02.29,9.95-.71,12.91-2.64l-.07-.65c1.13,2.16,1.66,12.84,1.84,17.38.05,1.25.07,2.04.07,2.04Z"/>
          <path class="cls-9" d="M165.52,338.99c-.11,1.81-.38,4.74-.9,5.52-.78,1.17-9.14,5.25-10.3,4.86-.75-.25-1.67-1.06-2.22-1.61,3.53-1.52,6.92-2.83,8.05-3.73,2.68-2.12,1.44-6.24,1.37-6.5.41.84,1.96,1.32,4,1.46Z"/>
          <path class="cls-9" d="M180.28,355.12h-37.93c-.19-.67.07-1.35.64-2.04h37.22c.05,1.25.07,2.04.07,2.04Z"/>
          <path class="cls-12" d="M140.02,341.11s-2.88,7.6-5.38,11.61c-.99,1.6-1.93,2.64-2.59,2.39-2.33-.88-25.77-20.81-23.53-22.26.33-.21.85-.36,1.51-.44,2.04-.26,5.42.02,8.54.34,2.68.28,5.18.58,6.48.58,3.31,0,3.74-.97,3.74-.97.07.38.7,1.11,1.62,2,2.9,2.75,8.72,6.97,9.61,6.75Z"/>
          <path class="cls-9" d="M130.41,334.36c-4.97,3.29-10.15,1.31-11.17.56-.75-.55-.75-1.57-.67-2.16,2.68.28,5.18.58,6.48.58,3.31,0,3.74-.97,3.74-.97.07.38.7,1.11,1.62,2Z"/>
          <path class="cls-9" d="M134.64,352.73c-.99,1.6-1.93,2.64-2.59,2.39-2.33-.88-25.77-20.81-23.53-22.26.33-.21.85-.36,1.51-.44l24.62,20.31Z"/>
          <path class="cls-10" d="M204.63,231.01c-1.83,2.55-5.12,6.45-7.82,6.06-.1-.02-.2-.03-.34-.06-5.16-.91-35.48-8.51-36.91-8.8-1.46-.29-11.66-.38-11.08-1.46.58-1.07,6.42-4.47,7.97-4.39,1.56.08,7.69,1.86,13.81,1.66,6.13-.19,22.17,0,22.17,0l.78-1.34,1.15-1.98c-.32,5.94,6.84,10.79,10.27,10.3Z"/>
          <path class="cls-20" d="M204.63,253.16s-1.4,7.44,4.05,9.92"/>
          <path class="cls-20" d="M201.77,259.14s-36.02,15.36-37.75,20.13c-1.73,4.77,9.16,56.43,9.16,56.43"/>
          <path class="cls-6" d="M232.89,261.47c0,.58-5.84,14.19-10.73,16.14-4.89,1.95-34.39-.2-34.39-.2l-14.59,9.54,3.05,28.73s-6.16-32.81-6.16-34.96c0-1.83,40.74-13.55,51.48-25.8,4.21.66,7.25.91,7.25.91,0,0,4.08,5.05,4.08,5.64Z"/>
          <path class="cls-17" d="M213.68,226.66c-2.53,3.58-6.61,8.14-9.47,12.26.32-.72.65-1.5,1.01-2.34,1.92-4.51,1.92-14.13,1.92-22.42l8.73-5.78s1.89,12.49-2.19,18.28Z"/>
          <path class="cls-14" d="M206.22,229.91c-.38.34-.76.69-1.15,1.01-.14.05-.29.08-.45.1-3.43.48-10.59-4.36-10.27-10.3.02-.44.38-1.33.95-2.48,2.93-5.91,11.75-19.06,13.37-18.46,0,0,5.66.88,7.2,8.61,1.44,7.26-3.76,16.07-9.65,21.53Z"/>
          <path class="cls-17" d="M226.29,255.57c-1.24-.15-2.87-.36-4.73-.65-4.83-.75-11.17-2.04-16.16-4.08,4.4-.16,13.82-3.05,14.96-24.62.52,4.04,1.29,8.22,2.37,12.5,1.45,5.69,2.82,11.69,3.56,16.85Z"/>
          <path class="cls-17" d="M223.96,184.43c-.45.52-.8,1-1.07,1.4-1.76.92-3.46,2.03-4.52,2.9-.74-.81-1.42-1.13-2.05-1.2l3.88-4.89c1.18.71,2.5,1.34,3.77,1.79Z"/>
          <path class="cls-17" d="M204.63,231.01c-1.83,2.55-5.12,6.45-7.82,6.06-.1-.02-.2-.03-.34-.06-3.34-4.83-3.46-11.16-3.27-14.32l1.15-1.98c-.32,5.94,6.84,10.79,10.27,10.3Z"/>
          <path class="cls-17" d="M233.19,172.15c-.34.79-.74,1.6-1.18,2.44-1.17,2.23-1.33,4.46-1.53,6.3-.39-.3-.79-.58-1.19-.82-2.53,1.51-4.23,3.07-5.33,4.35h0c-3.57-1.27-7.51-4-7.75-5.61-.35-2.33,2.49-6.33,0-6.81-2.49-.48-3.83,3.7-3.83,3.7-2.05.21-2.77-3.22-6.13-3.22-.47,0-.94.07-1.39.18-1.58.39-2.96,1.37-3.85,2.12,0,0,3.78-5.31,9.72-4.24,0,0-.87-1.65-4.86-1.46,8.36-2.73,13.71-1.65,16.29,1.36,2.1,2.46,7.04,5.51,11.05,1.7Z"/>
        </g>
        <g>
          <path class="cls-1" d="M250.2,286.95h-29.18s23.15-6.81,23.15-52.71c0-.59,0-1.17,0-1.75-.24-30.68-6.79-47.59-14.87-52.42,2.53-1.5,5.89-2.93,10.34-3.92,1.94-.44,4.08-.79,6.44-1.04,19.98-2.04,35.94,5.79,37.84,14.66,1.89,8.86-9.79,97.18-33.7,97.18Z"/>
          <path class="cls-15" d="M244.17,234.24c0,45.9-23.15,52.71-23.15,52.71h-47.84l1.99-1.42,12.6-8.12,25.28-1.75c1.36-5.64,5.06-5.83,10.7-6.42,3.28-.34,3.6-5.88,2.6-13.2-.73-5.27-2.14-11.47-3.63-17.33-1.08-4.28-1.86-8.46-2.37-12.5-.61-4.72-.88-9.23-.91-13.48-.07-9.67,1.1-17.94,2.35-23.92.11-.58.24-1.14.36-1.67,0-.02,0-.04,0-.06.11-.25.61-1.28,1.79-2.66h0c1.1-1.29,2.8-2.86,5.33-4.36.4.24.8.52,1.19.82,7.52,5.73,13.45,22.45,13.68,51.6,0,.58,0,1.16,0,1.75Z"/>
          <path class="cls-1" d="M234.94,355.12h-34.44c-1.18,0-1.69-1.49-.76-2.22l8.62-6.74c3.82-3,6.06-7.59,6.06-12.44v-46.76h6.61v46.76c0,4.85,2.23,9.45,6.06,12.44l8.61,6.74c.93.73.42,2.22-.76,2.22Z"/>
          <g class="cls-23">
            <g>
              <path class="cls-19" d="M261.21,176.88s.25.64.66,1.93"/>
              <path class="cls-21" d="M263.03,182.79c1.17,4.39,2.69,11.22,3.9,20.53,3.13,24.15-.05,58.06-21.05,79.53"/>
              <path class="cls-19" d="M244.39,284.32c-.49.47-.99.93-1.5,1.39"/>
            </g>
          </g>
          <path class="cls-6" d="M221.02,286.95v12.77c-2.29,1.19-4.62,2.11-6.61,2.78v-15.55h6.61Z"/>
          <path class="cls-6" d="M230.17,267.11c-1.56,4.86-11.27,3.99-12.45,7.59-2.5,7.63-3.89,4.27-13.5,5.25-5.5.56-9.49,4.08-11.9,7.01h-19.13l1.99-1.42,12.6-8.12,25.28-1.75c1.36-5.64,5.06-5.83,10.7-6.42,3.28-.34,3.6-5.88,2.6-13.2-.73-5.27-2.14-11.47-3.63-17.33-1.08-4.28-1.86-8.46-2.37-12.5-.61-4.72-.88-9.23-.91-13.48,3.74,19.5,11.88,50.77,10.72,54.37Z"/>
          <path class="cls-6" d="M244.17,234.24c0-.59,0-1.17,0-1.75-.24-30.68-6.79-47.59-14.87-52.42,2.53-1.5,5.89-2.93,10.34-3.92-1.33,1.92-2.73,4.81-2.07,7.9,1.17,5.46,14.4,26.46,9.34,60.11-3.65,24.28-2.44,36.91,1.37,42.79h-27.25s23.15-6.81,23.15-52.71Z"/>
        </g>
        <path class="cls-17" d="M77.22,209.24c-.02,1.06-.11,2.07-.31,2.96h-9.39c-2.76-1.83-7.26-5.46-9.96-10.9,2.51,2.73,6.8,6.06,11.17,7.08,3.81.88,6.65.51,8.49.86Z"/>
        <g>
          <path class="cls-13" d="M99.03,171.97c-1.05,3.81-5.85,11.19-10.24,19.1-4.8,8.63-9.09,17.87-7.41,23.74.42,1.47.61,2.55.61,3.33.02,2.55-1.92,1.76-3.88.31-2-1.48-4.02-3.64-4.02-3.64l.15-11.38s-6.45-5.93-1.15-18.89c.34-.82.72-1.67,1.15-2.55,7.29-14.73,18.23-30.19,7.87-34.57,14.3-.88,19.11,16.6,16.92,24.56Z"/>
          <g class="cls-22">
            <path class="cls-4" d="M82.11,147.4c2.68.58,5.01,2.38,6.49,4.67.4.56.68,1.19,1,1.79.24.64.54,1.26.71,1.93.19.66.38,1.32.47,2l.18,1.01.06,1.03c-.06,2.77-.94,5.41-1.85,7.98-.95,2.56-2.05,5.07-3.19,7.55-2.28,4.96-4.73,9.84-6.9,14.84-1.07,2.5-2.1,5.02-2.86,7.62-.39,1.29-.68,2.61-.85,3.93-.17,1.32-.15,2.67.27,3.86h0c.07.22-.04.46-.25.53-.21.08-.45-.04-.52-.25,0,0,0,0,0,0-.47-1.4-.44-2.86-.26-4.23.2-1.38.52-2.73.93-4.05.81-2.63,1.88-5.16,2.99-7.66,2.24-4.99,4.75-9.84,7.09-14.76,1.17-2.46,2.29-4.95,3.27-7.49.94-2.54,1.84-5.16,1.93-7.87l-.05-1.01-.16-1c-.09-.68-.26-1.33-.45-1.99-.15-.66-.45-1.28-.68-1.92-.31-.61-.58-1.23-.97-1.79-1.44-2.29-3.74-4.11-6.41-4.72Z"/>
          </g>
          <path class="cls-14" d="M92.46,194.96c-4.37,11.52,0,20.27-6.56,21.51-3,.57-4.33-1.65-4.88-4.24-.65-3.06-.22-6.62-.22-6.62,0,0,1.11-2.85,3.45-5.61,1.91-2.25,4.62-4.44,8.21-5.03Z"/>
          <path class="cls-1" d="M77.22,209.24c-.02,2.68-.63,4.96-1.87,6.15-.12.12-.25.23-.36.32-3.1,2.51-5.08-2.09-5.08-2.09,0,0-8.25-4.07-12.34-12.33-3.13-6.34-3.83-15.17,3.54-26.51,1.08,8.08,5.51,13.58,9.9,18.8h0c.55.66,1.09,1.3,1.63,1.95,3.04,3.64,4.63,9.24,4.59,13.7Z"/>
          <g class="cls-22">
            <path class="cls-4" d="M61.11,174.79c-.71,3.47-.89,7.05-.56,10.57.37,3.51,1.34,6.99,3.24,9.96,1.83,3.02,4.38,5.5,6.69,8.22,1.15,1.36,2.25,2.81,3.03,4.46.78,1.65,1.14,3.53.99,5.37-.02.23-.22.39-.44.37-.23-.02-.39-.22-.37-.44,0,0,0,0,0,0,.17-1.7-.12-3.43-.83-5-.7-1.58-1.74-3-2.85-4.37-2.23-2.72-4.76-5.29-6.56-8.4-1.88-3.06-2.79-6.62-3.09-10.15-.26-3.55-.02-7.13.76-10.59Z"/>
          </g>
          <g class="cls-23">
            <path class="cls-4" d="M92.47,194.96c-1.25,1.45-2.42,2.97-3.53,4.53-1.11,1.56-2.17,3.16-3.11,4.81-1.89,3.3-3.5,6.84-4.03,10.55h0c-.03.24-.24.39-.46.36-.22-.03-.38-.24-.35-.46,0,0,0-.01,0-.01.7-3.88,2.47-7.39,4.49-10.65,1.02-1.64,2.14-3.2,3.3-4.72,1.17-1.52,2.39-3,3.7-4.41Z"/>
          </g>
          <path class="cls-1" d="M89.81,215.08l-2.8,17.19c-.14.72-.77,1.24-1.51,1.24h-17.44c-.74,0-1.37-.52-1.51-1.24l-2.28-13.95-.52-3.23c-.17-.94.55-1.81,1.51-1.81h23.04c.96,0,1.68.87,1.51,1.81Z"/>
          <path class="cls-15" d="M92.46,218.59h-31.36l.83-4.68c.18-.98,1.03-1.7,2.03-1.7h25.65c.99,0,1.85.72,2.02,1.7l.83,4.68Z"/>
          <path class="cls-17" d="M80.8,205.61s-.43,3.54.21,6.6h-4.1c.2-.89.29-1.9.31-2.96.04-4.46-1.56-10.06-4.59-13.7-.54-.65-1.08-1.28-1.63-1.94h0c.07-2.52.64-5.53,2.08-9.07.24,4.13,1.25,11.32,5.38,12.08,3.13.57,7.22-2.54,10.33-5.55-1.65,2.95-3.22,5.98-4.53,8.93-2.34,2.77-3.45,5.61-3.45,5.61Z"/>
          <path class="cls-17" d="M78.48,233.52h-10.41c-.74,0-1.37-.52-1.51-1.24l-2.23-13.68h9c-.22,1.92-.49,5.49.19,8.27.53,2.2,2.46,5.03,4.97,6.66Z"/>
        </g>
        <g>
          <rect class="cls-8" x="108.76" y="50.79" width="52.58" height="41.15" rx="3.99" ry="3.99"/>
          <g>
            <path class="cls-11" d="M121,65.34v4.43c0,.35.29.64.64.64h2.45c.35,0,.64-.29.64-.64v-4.43c0-.35.29-.64.64-.64h.24c.35,0,.64.29.64.64v12.04c0,.35-.29.64-.64.64h-.24c-.35,0-.64-.29-.64-.64v-4.94c0-.35-.29-.64-.64-.64h-2.45c-.35,0-.64.29-.64.64v4.94c0,.35-.29.64-.64.64h-.24c-.35,0-.64-.29-.64-.64v-12.04c0-.35.29-.64.64-.64h.24c.35,0,.64.29.64.64Z"/>
            <path class="cls-11" d="M129.54,66.07h-1.15c-.35,0-.64-.29-.64-.64v-.08c0-.35.29-.64.64-.64h5.1c.35,0,.64.29.64.64v.08c0,.35-.29.64-.64.64h-1.15c-.35,0-.64.29-.64.64v10.68c0,.35-.29.64-.64.64h-.24c-.35,0-.64-.29-.64-.64v-10.68c0-.35-.29-.64-.64-.64Z"/>
            <path class="cls-11" d="M143.61,72.29c-.1-1.76-.2-3.72-.14-5.22h-.08c-.3,1.48-.65,3.06-1.07,4.63l-1.64,6.25h-.97l-1.56-5.99c-.44-1.7-.83-3.34-1.09-4.88h-.06c0,1.56-.08,3.42-.16,5.32l-.23,5.02c-.02.34-.3.61-.64.61h-.07c-.37,0-.66-.31-.64-.68l.71-12.04c.02-.34.3-.6.64-.6h.54c.29,0,.55.2.62.48l1.44,5.61c.45,1.76.79,3.06,1.07,4.59h.06c.26-1.52.55-2.79.99-4.59l1.38-5.6c.07-.29.33-.49.62-.49h.59c.34,0,.62.27.64.61l.7,12.04c.02.37-.27.68-.64.68h-.13c-.34,0-.63-.27-.64-.61l-.25-5.12Z"/>
            <path class="cls-11" d="M148.02,64.7h.24c.35,0,.64.29.64.64v10.76c0,.35.29.64.64.64h2.47c.35,0,.64.29.64.64h0c0,.35-.29.64-.64.64h-3.99c-.35,0-.64-.29-.64-.64v-12.04c0-.35.29-.64.64-.64Z"/>
          </g>
        </g>
        <g>
          <g>
            <path class="cls-8" d="M177.68,54.31c1.67,0,2.06-1.12,2.06-2.12,0-.88-.09-1.73-.18-2.58-.09-.91-.18-1.73-.18-2.67,0-2.73,1.67-3.88,3.82-3.88h.36v1.58h-.46c-1.27,0-1.79.91-1.79,2.28,0,.82.09,1.58.18,2.31.06.79.15,1.52.15,2.25.03,2.37-.79,3.19-2.09,3.55v.06c1.3.39,2.12,1.21,2.09,3.61,0,.76-.09,1.52-.15,2.28-.09.76-.18,1.52-.18,2.34,0,1.37.46,2.31,1.82,2.31h.42v1.58h-.39c-2,0-3.79-1-3.79-3.88,0-.91.09-1.82.18-2.7.09-.88.18-1.76.18-2.61,0-.97-.39-2.15-2.06-2.15v-1.52Z"/>
            <path class="cls-8" d="M208.62,55.83c-1.67,0-2.06,1.18-2.06,2.15,0,.85.09,1.73.18,2.61.09.88.18,1.79.18,2.7,0,2.88-1.79,3.88-3.79,3.88h-.39v-1.58h.42c1.37-.15,1.82-.94,1.82-2.31,0-.82-.09-1.58-.15-2.34-.09-.76-.18-1.52-.18-2.28-.03-2.4.79-3.22,2.09-3.61v-.06c-1.31-.36-2.12-1.18-2.09-3.55,0-.73.09-1.46.18-2.25.06-.73.15-1.49.15-2.31,0-1.37-.52-2.12-1.79-2.28h-.46v-1.58h.36c2.15,0,3.82,1.15,3.82,3.88,0,.94-.09,1.76-.18,2.67-.09.85-.18,1.7-.18,2.58,0,1,.39,2.12,2.06,2.12v1.52Z"/>
          </g>
          <polygon class="cls-2" points="198.21 58.04 198.21 52.2 193.15 49.28 188.1 52.2 188.1 58.04 193.15 60.96 198.21 58.04"/>
        </g>
        <g>
          <path class="cls-2" d="M236.24,87.12c-4.75-2.37-10.47-1.43-14.22,2.32-4.64,4.64-4.79,12.07-.49,16.91l-1.85-.22c-.22-.03-.43.13-.45.36-.03.22.13.43.36.45l2.82.34c.11.01.22-.02.3-.08.08-.06.14-.16.15-.27l.33-2.73c.03-.22-.13-.43-.36-.45-.22-.03-.43.13-.45.36l-.21,1.74c-4.04-4.52-3.9-11.47.44-15.81,3.51-3.51,8.84-4.38,13.28-2.17.2.1.45.02.55-.18.1-.2.02-.45-.18-.55Z"/>
          <path class="cls-2" d="M225.62,109.77c4.75,2.37,10.47,1.43,14.22-2.32,4.64-4.64,4.79-12.07.49-16.91l1.85.22c.22.03.43-.13.45-.36.03-.22-.13-.43-.36-.45l-2.82-.34c-.11-.01-.22.02-.3.08-.08.06-.14.16-.15.27l-.32,2.73c-.03.22.13.43.36.45.22.03.43-.13.45-.36l.21-1.74c4.04,4.52,3.9,11.47-.44,15.81-3.51,3.51-8.84,4.38-13.28,2.17-.2-.1-.45-.02-.55.18-.1.2-.02.45.18.55Z"/>
        </g>
        <g>
          <path class="cls-2" d="M335.08,132.75h-74.07c-1.35,0-2.44-1.09-2.44-2.44h0c0-1.35,1.09-2.44,2.44-2.44h74.07c1.35,0,2.44,1.09,2.44,2.44h0c0,1.35-1.09,2.44-2.44,2.44Z"/>
          <path class="cls-13" d="M308.63,143.37h-47.62c-1.35,0-2.44-1.09-2.44-2.44h0c0-1.35,1.09-2.44,2.44-2.44h47.62c1.35,0,2.44,1.09,2.44,2.44h0c0,1.35-1.09,2.44-2.44,2.44Z"/>
          <path class="cls-13" d="M308.63,154.78h-47.62c-1.35,0-2.44-1.09-2.44-2.44h0c0-1.35,1.09-2.44,2.44-2.44h47.62c1.35,0,2.44,1.09,2.44,2.44h0c0,1.35-1.09,2.44-2.44,2.44Z"/>
        </g>
        <g>
          <path class="cls-13" d="M72.44,92.13h-38.48c-1.35,0-2.44-1.09-2.44-2.44h0c0-1.35,1.09-2.44,2.44-2.44h38.48c1.35,0,2.44,1.09,2.44,2.44h0c0,1.35-1.09,2.44-2.44,2.44Z"/>
          <path class="cls-2" d="M57.91,102.75h-23.95c-1.35,0-2.44-1.09-2.44-2.44h0c0-1.35,1.09-2.44,2.44-2.44h23.95c1.35,0,2.44,1.09,2.44,2.44h0c0,1.35-1.09,2.44-2.44,2.44Z"/>
          <path class="cls-2" d="M57.91,114.16h-23.95c-1.35,0-2.44-1.09-2.44-2.44h0c0-1.35,1.09-2.44,2.44-2.44h23.95c1.35,0,2.44,1.09,2.44,2.44h0c0,1.35-1.09,2.44-2.44,2.44Z"/>
        </g>
        <g>
          <path class="cls-14" d="M301.71,269.35c-2.4,6.96-5.26,13.03-8.26,18.51-10.35,18.91-22.38,30.95-22.83,48.58,0,0-3.73-16.62-.74-35.55,1.68-10.63,5.48-21.99,13.24-31.55,21.62-26.58,18.42-50.76,18.42-50.76,0,0,10.84,19.83.16,50.76Z"/>
          <g class="cls-23">
            <path class="cls-4" d="M276.24,315.76c-.32-2.21-.23-4.35-.03-6.51.21-2.15.6-4.28,1.15-6.36,1.07-4.17,2.66-8.19,4.6-12.02.93-1.94,2.04-3.77,3.13-5.62l3.48-5.37c2.22-3.61,4.09-7.45,5.66-11.4,1.59-3.95,2.92-8,4.05-12.11,1.13-4.11,2.06-8.27,2.79-12.47.73-4.2,1.27-8.43,1.53-12.69.13-2.13.19-4.26.09-6.39-.05-1.06-.12-2.13-.29-3.18-.18-1.05-.37-2.11-.87-3.06.51.94.73,2.01.92,3.06.19,1.05.28,2.12.35,3.18.13,2.13.1,4.27.01,6.41-.19,4.27-.69,8.52-1.38,12.74-.69,4.22-1.57,8.41-2.66,12.54-1.08,4.14-2.38,8.22-3.94,12.21-1.54,3.99-3.39,7.88-5.6,11.57l-3.45,5.39c-1.07,1.83-2.17,3.65-3.08,5.57-1.9,3.79-3.46,7.76-4.5,11.86-.53,2.05-.91,4.13-1.14,6.23-.22,2.08-.31,4.24-.03,6.27v.04c.04.22-.12.43-.34.46-.22.03-.43-.12-.46-.35Z"/>
          </g>
          <path class="cls-17" d="M293.45,287.86c-10.35,18.91-22.38,30.95-22.83,48.58,0,0-3.73-16.62-.74-35.55,6.71-2.74,16.15-7.21,23.56-13.04Z"/>
          <path class="cls-13" d="M276.63,355.12s-7.56-12.93,10.33-28.88c17.89-15.95,31.9-37.05,29.17-54.12-17.12,19.88-62.63,48.08-49.79,82.99h10.28Z"/>
          <g class="cls-23">
            <path class="cls-4" d="M316.13,272.12c-1.71,3.77-4,7.24-6.46,10.56-2.49,3.3-5.23,6.41-8.15,9.35-2.89,2.96-6.08,5.62-9.24,8.27-3.14,2.66-5.99,5.67-8.53,8.91-5.08,6.48-9.05,13.86-11.44,21.73-1.17,3.94-1.97,8-2.08,12.1-.12,4.08.4,8.23,2.04,11.95.09.21,0,.45-.21.54-.21.09-.45,0-.54-.21h0c-1.66-3.89-2.16-8.15-2-12.31.15-4.17,1-8.28,2.21-12.25,2.48-7.93,6.54-15.33,11.71-21.81,2.58-3.24,5.47-6.24,8.66-8.89,3.19-2.63,6.39-5.24,9.3-8.18,2.93-2.9,5.69-5.99,8.21-9.26,2.49-3.29,4.8-6.74,6.54-10.5Z"/>
          </g>
        </g>
        <g>
          <path class="cls-14" d="M19.83,261.47s-9.34-8.51-14.3-29.78c28.59,24.24,35.59,45.83,35.59,45.83l-21.3-16.04Z"/>
          <g class="cls-23">
            <path class="cls-4" d="M5.53,231.69c3.98,5.69,7.87,11.44,11.65,17.27,1.89,2.91,3.74,5.85,5.54,8.83,1.79,2.98,3.54,5.99,4.99,9.19.09.21,0,.45-.2.54-.21.09-.45,0-.54-.2,0,0,0,0,0,0h0c-1.36-3.16-3.05-6.21-4.77-9.21-1.73-3-3.53-5.97-5.36-8.92-3.67-5.89-7.44-11.72-11.31-17.49Z"/>
          </g>
          <path class="cls-13" d="M40.54,273.43c-5.14-4.63-12.75-9.22-20-14.17-9.63-6.57-18.61-13.79-20.27-22.61-3.78,31.81,33.22,46.14,33.22,46.14l.07.11,13.44,19.6s5.49-18.28-6.47-29.07Z"/>
          <g class="cls-23">
            <path class="cls-4" d="M.27,236.66c.02,3.55,1.05,7.02,2.54,10.2,1.56,3.17,3.67,6.05,6.18,8.52,2.51,2.48,5.41,4.52,8.38,6.44,2.96,1.93,5.97,3.79,8.9,5.79,5.84,3.97,11.43,8.59,15.34,14.6,3.97,5.96,5.8,13.18,5.8,20.3,0,.23-.18.41-.41.41-.23,0-.41-.18-.41-.41h0c.06-7-1.66-14.08-5.5-19.97-3.79-5.94-9.28-10.59-15.06-14.59-2.9-2.02-5.89-3.91-8.83-5.87-2.95-1.95-5.85-4.03-8.35-6.55-2.51-2.51-4.6-5.43-6.13-8.62-1.47-3.21-2.46-6.7-2.45-10.24Z"/>
          </g>
        </g>
        <path class="cls-18" d="M303.97,369.32H55.36c-3.92,0-7.1-3.18-7.1-7.1h0c0-3.92,3.18-7.1,7.1-7.1h248.61c3.92,0,7.1,3.18,7.1,7.1h0c0,3.92-3.18,7.1-7.1,7.1Z"/>
      </g>
    </g>
  </g>
</svg>